<svg width="428" height="129" viewBox="0 0 428 129" fill="none" xmlns="http://www.w3.org/2000/svg">
<path fill-rule="evenodd" clip-rule="evenodd" d="M-11 101.286H0.9625C12.5125 101.286 36.025 101.286 59.5375 101.286C83.4625 101.286 106.975 101.286 130.488 95.4368C154 89.5875 177.512 77.8891 201.025 89.5875C224.537 101.286 248.462 136.381 271.975 127.607C295.487 118.834 319 66.1907 342.513 39.8692C366.025 13.5477 389.537 13.5477 413.462 19.3969C436.975 25.2461 460.487 36.9445 472.037 42.7938L484 48.643V-4H472.037C460.487 -4 436.975 -4 413.462 -4C389.537 -4 366.025 -4 342.513 -4C319 -4 295.487 -4 271.975 -4C248.462 -4 224.537 -4 201.025 -4C177.512 -4 154 -4 130.488 -4C106.975 -4 83.4625 -4 59.5375 -4C36.025 -4 12.5125 -4 0.9625 -4H-11V101.286Z" fill="#0099FF" fill-opacity="0.08"/>
</svg>
