<svg width="372" height="254" viewBox="0 0 372 254" fill="none" xmlns="http://www.w3.org/2000/svg">
<g clip-path="url(#clip0_145_456)">
<path d="M62.2821 31.0835H56.2552C55.656 31.0828 55.0815 30.8285 54.6578 30.3764C54.2341 29.9243 53.9958 29.3113 53.9951 28.6719V2.41165C53.9958 1.77226 54.2341 1.15927 54.6578 0.707153C55.0815 0.255036 55.656 0.00072058 56.2552 0H62.2821C62.8814 0.00072058 63.4558 0.255036 63.8795 0.707153C64.3032 1.15927 64.5416 1.77226 64.5422 2.41165V28.6719C64.5416 29.3113 64.3032 29.9243 63.8795 30.3764C63.4558 30.8285 62.8814 31.0828 62.2821 31.0835Z" fill="#F2F2F2"/>
<path d="M64.291 5.09131H54.2461V7.235H64.291V5.09131Z" fill="#CCCCCC"/>
<path d="M64.291 21.7048H54.2461V23.8485H64.291V21.7048Z" fill="#CCCCCC"/>
<path d="M77.3495 31.0835H71.3226C70.7234 31.0828 70.1489 30.8285 69.7252 30.3764C69.3015 29.9243 69.0632 29.3113 69.0625 28.6719V2.41165C69.0632 1.77226 69.3015 1.15927 69.7252 0.707153C70.1489 0.255036 70.7234 0.00072058 71.3226 0H77.3495C77.9487 0.00072058 78.5232 0.255036 78.9469 0.707153C79.3706 1.15927 79.609 1.77226 79.6096 2.41165V28.6719C79.609 29.3113 79.3706 29.9243 78.9469 30.3764C78.5232 30.8285 77.9487 31.0828 77.3495 31.0835Z" fill="#F2F2F2"/>
<path d="M79.3584 5.09131H69.3135V7.235H79.3584V5.09131Z" fill="#CCCCCC"/>
<path d="M79.3584 21.7048H69.3135V23.8485H79.3584V21.7048Z" fill="#CCCCCC"/>
<path d="M92.4169 31.0835H86.39C85.7908 31.0828 85.2163 30.8285 84.7926 30.3764C84.3689 29.9243 84.1306 29.3113 84.1299 28.6719V2.41165C84.1306 1.77226 84.3689 1.15927 84.7926 0.707153C85.2163 0.255036 85.7908 0.00072058 86.39 0H92.4169C93.0161 0.00072058 93.5906 0.255036 94.0143 0.707153C94.438 1.15927 94.6763 1.77226 94.677 2.41165V28.6719C94.6763 29.3113 94.438 29.9243 94.0143 30.3764C93.5906 30.8285 93.0161 31.0828 92.4169 31.0835Z" fill="#F2F2F2"/>
<path d="M94.4257 5.09131H84.3809V7.235H94.4257V5.09131Z" fill="#CCCCCC"/>
<path d="M94.4257 21.7048H84.3809V23.8485H94.4257V21.7048Z" fill="#CCCCCC"/>
<path d="M100.452 74.4933H94.4251C93.8259 74.4926 93.2515 74.2383 92.8278 73.7862C92.4041 73.3341 92.1657 72.7211 92.165 72.0817V45.8214C92.1657 45.1821 92.4041 44.5691 92.8278 44.1169C93.2515 43.6648 93.8259 43.4105 94.4251 43.4098H100.452C101.051 43.4105 101.626 43.6648 102.049 44.1169C102.473 44.5691 102.711 45.1821 102.712 45.8214V72.0817C102.711 72.7211 102.473 73.3341 102.049 73.7862C101.626 74.2383 101.051 74.4926 100.452 74.4933Z" fill="#F2F2F2"/>
<path d="M102.461 48.5011H92.416V50.6448H102.461V48.5011Z" fill="#CCCCCC"/>
<path d="M102.461 65.1146H92.416V67.2583H102.461V65.1146Z" fill="#CCCCCC"/>
<path d="M115.519 74.4933H109.493C108.893 74.4926 108.319 74.2383 107.895 73.7862C107.471 73.3341 107.233 72.7211 107.232 72.0817V45.8214C107.233 45.1821 107.471 44.5691 107.895 44.1169C108.319 43.6648 108.893 43.4105 109.493 43.4098H115.519C116.119 43.4105 116.693 43.6648 117.117 44.1169C117.541 44.5691 117.779 45.1821 117.78 45.8214V72.0817C117.779 72.7211 117.541 73.3341 117.117 73.7862C116.693 74.2383 116.119 74.4926 115.519 74.4933Z" fill="#F2F2F2"/>
<path d="M117.528 48.5011H107.483V50.6448H117.528V48.5011Z" fill="#CCCCCC"/>
<path d="M117.528 65.1146H107.483V67.2583H117.528V65.1146Z" fill="#CCCCCC"/>
<path d="M130.587 74.4933H124.56C123.961 74.4926 123.386 74.2383 122.963 73.7862C122.539 73.3341 122.3 72.7211 122.3 72.0817V45.8214C122.3 45.1821 122.539 44.5691 122.963 44.1169C123.386 43.6648 123.961 43.4105 124.56 43.4098H130.587C131.186 43.4105 131.761 43.6648 132.184 44.1169C132.608 44.5691 132.846 45.1821 132.847 45.8214V72.0817C132.846 72.7211 132.608 73.3341 132.184 73.7862C131.761 74.2383 131.186 74.4926 130.587 74.4933Z" fill="#F2F2F2"/>
<path d="M132.596 48.5011H122.551V50.6448H132.596V48.5011Z" fill="#CCCCCC"/>
<path d="M132.596 65.1146H122.551V67.2583H132.596V65.1146Z" fill="#CCCCCC"/>
<path d="M60.7753 117.903H54.7484C54.1492 117.902 53.5747 117.648 53.151 117.196C52.7273 116.744 52.489 116.131 52.4883 115.491V89.2312C52.489 88.5918 52.7273 87.9788 53.151 87.5267C53.5747 87.0746 54.1492 86.8203 54.7484 86.8196H60.7753C61.3745 86.8203 61.949 87.0746 62.3727 87.5267C62.7964 87.9788 63.0347 88.5918 63.0354 89.2312V115.491C63.0347 116.131 62.7964 116.744 62.3727 117.196C61.949 117.648 61.3745 117.902 60.7753 117.903Z" fill="#F2F2F2"/>
<path d="M62.7841 91.9108H52.7393V94.0545H62.7841V91.9108Z" fill="#CCCCCC"/>
<path d="M62.7841 108.524H52.7393V110.668H62.7841V108.524Z" fill="#CCCCCC"/>
<path d="M75.8427 117.903H69.8158C69.2166 117.902 68.6421 117.648 68.2184 117.196C67.7947 116.744 67.5563 116.131 67.5557 115.491V89.2312C67.5563 88.5918 67.7947 87.9788 68.2184 87.5267C68.6421 87.0746 69.2166 86.8203 69.8158 86.8196H75.8427C76.4419 86.8203 77.0164 87.0746 77.4401 87.5267C77.8638 87.9788 78.1021 88.5918 78.1028 89.2312V115.491C78.1021 116.131 77.8638 116.744 77.4401 117.196C77.0164 117.648 76.4419 117.902 75.8427 117.903Z" fill="#F2F2F2"/>
<path d="M77.8515 91.9108H67.8066V94.0545H77.8515V91.9108Z" fill="#CCCCCC"/>
<path d="M77.8515 108.524H67.8066V110.668H77.8515V108.524Z" fill="#CCCCCC"/>
<path d="M90.9101 117.903H84.8831C84.2839 117.902 83.7095 117.648 83.2858 117.196C82.8621 116.744 82.6237 116.131 82.623 115.491V89.2312C82.6237 88.5918 82.8621 87.9788 83.2858 87.5267C83.7095 87.0746 84.2839 86.8203 84.8831 86.8196H90.9101C91.5093 86.8203 92.0838 87.0746 92.5075 87.5267C92.9312 87.9788 93.1695 88.5918 93.1702 89.2312V115.491C93.1695 116.131 92.9312 116.744 92.5075 117.196C92.0838 117.648 91.5093 117.902 90.9101 117.903Z" fill="#F2F2F2"/>
<path d="M92.9189 91.9108H82.874V94.0545H92.9189V91.9108Z" fill="#CCCCCC"/>
<path d="M92.9189 108.524H82.874V110.668H92.9189V108.524Z" fill="#CCCCCC"/>
<path d="M107.483 31.0835H101.456C100.857 31.0828 100.283 30.8285 99.859 30.3764C99.4353 29.9243 99.197 29.3113 99.1963 28.6719V2.41165C99.197 1.77226 99.4353 1.15927 99.859 0.707153C100.283 0.255036 100.857 0.00072058 101.456 0H107.483C108.083 0.00072058 108.657 0.255036 109.081 0.707153C109.504 1.15927 109.743 1.77226 109.743 2.41165V28.6719C109.743 29.3113 109.504 29.9243 109.081 30.3764C108.657 30.8285 108.083 31.0828 107.483 31.0835Z" fill="#F2F2F2"/>
<path d="M109.493 5.09131H99.4482V7.235H109.493V5.09131Z" fill="#CCCCCC"/>
<path d="M109.493 21.7048H99.4482V23.8485H109.493V21.7048Z" fill="#CCCCCC"/>
<path d="M122.551 31.0835H116.524C115.925 31.0828 115.35 30.8285 114.926 30.3764C114.503 29.9243 114.264 29.3113 114.264 28.6719V2.41165C114.264 1.77226 114.503 1.15927 114.926 0.707153C115.35 0.255036 115.925 0.00072058 116.524 0H122.551C123.15 0.00072058 123.724 0.255036 124.148 0.707153C124.572 1.15927 124.81 1.77226 124.811 2.41165V28.6719C124.81 29.3113 124.572 29.9243 124.148 30.3764C123.724 30.8285 123.15 31.0828 122.551 31.0835Z" fill="#F2F2F2"/>
<path d="M124.561 5.09131H114.516V7.235H124.561V5.09131Z" fill="#CCCCCC"/>
<path d="M124.561 21.7048H114.516V23.8485H124.561V21.7048Z" fill="#CCCCCC"/>
<path d="M137.618 31.0835H131.591C130.992 31.0828 130.417 30.8285 129.994 30.3764C129.57 29.9243 129.332 29.3113 129.331 28.6719V2.41165C129.332 1.77226 129.57 1.15927 129.994 0.707153C130.417 0.255036 130.992 0.00072058 131.591 0H137.618C138.217 0.00072058 138.792 0.255036 139.215 0.707153C139.639 1.15927 139.878 1.77226 139.878 2.41165V28.6719C139.878 29.3113 139.639 29.9243 139.215 30.3764C138.792 30.8285 138.217 31.0828 137.618 31.0835Z" fill="#F2F2F2"/>
<path d="M139.628 5.09131H129.583V7.235H139.628V5.09131Z" fill="#CCCCCC"/>
<path d="M139.628 21.7048H129.583V23.8485H139.628V21.7048Z" fill="#CCCCCC"/>
<path d="M152.685 31.0835H146.659C146.059 31.0828 145.485 30.8285 145.061 30.3764C144.637 29.9243 144.399 29.3113 144.398 28.6719V2.41165C144.399 1.77226 144.637 1.15927 145.061 0.707153C145.485 0.255036 146.059 0.00072058 146.659 0H152.685C153.285 0.00072058 153.859 0.255036 154.283 0.707153C154.707 1.15927 154.945 1.77226 154.946 2.41165V28.6719C154.945 29.3113 154.707 29.9243 154.283 30.3764C153.859 30.8285 153.285 31.0828 152.685 31.0835Z" fill="#F2F2F2"/>
<path d="M154.694 5.09131H144.649V7.235H154.694V5.09131Z" fill="#CCCCCC"/>
<path d="M154.694 21.7048H144.649V23.8485H154.694V21.7048Z" fill="#CCCCCC"/>
<path d="M175.257 31.8874H32.1175C31.9843 31.8874 31.8565 31.8309 31.7623 31.7304C31.6682 31.6299 31.6152 31.4936 31.6152 31.3515C31.6152 31.2093 31.6682 31.073 31.7623 30.9725C31.8565 30.872 31.9843 30.8156 32.1175 30.8156H175.257C175.39 30.8156 175.518 30.872 175.612 30.9725C175.706 31.073 175.759 31.2093 175.759 31.3515C175.759 31.4936 175.706 31.6299 175.612 31.7304C175.518 31.8309 175.39 31.8874 175.257 31.8874Z" fill="#CCCCCC"/>
<path d="M175.257 75.2972H32.1175C31.9843 75.2972 31.8565 75.2407 31.7623 75.1402C31.6682 75.0397 31.6152 74.9034 31.6152 74.7613C31.6152 74.6191 31.6682 74.4828 31.7623 74.3823C31.8565 74.2818 31.9843 74.2253 32.1175 74.2253H175.257C175.39 74.2253 175.518 74.2818 175.612 74.3823C175.706 74.4828 175.759 74.6191 175.759 74.7613C175.759 74.9034 175.706 75.0397 175.612 75.1402C175.518 75.2407 175.39 75.2972 175.257 75.2972Z" fill="#CCCCCC"/>
<path d="M175.257 118.707H32.1175C31.9843 118.707 31.8565 118.651 31.7623 118.55C31.6682 118.449 31.6152 118.313 31.6152 118.171C31.6152 118.029 31.6682 117.893 31.7623 117.792C31.8565 117.692 31.9843 117.635 32.1175 117.635H175.257C175.39 117.635 175.518 117.692 175.612 117.792C175.706 117.893 175.759 118.029 175.759 118.171C175.759 118.313 175.706 118.449 175.612 118.55C175.518 118.651 175.39 118.707 175.257 118.707Z" fill="#CCCCCC"/>
<path d="M166.78 202.837C166.78 198.694 152.164 195.334 134.134 195.334C116.104 195.334 101.488 198.694 101.488 202.837C101.488 205.493 107.497 207.825 116.556 209.158V250.267C116.556 251.19 116.9 252.077 117.512 252.73C118.124 253.383 118.954 253.75 119.82 253.75C120.686 253.75 121.516 253.383 122.129 252.73C122.741 252.077 123.085 251.19 123.085 250.267V209.899C126.536 210.184 130.255 210.34 134.134 210.34C138.013 210.34 141.732 210.184 145.184 209.899V250.267C145.184 251.19 145.528 252.077 146.14 252.73C146.752 253.383 147.582 253.75 148.448 253.75C149.314 253.75 150.144 253.383 150.757 252.73C151.369 252.077 151.713 251.19 151.713 250.267V209.158C160.771 207.825 166.78 205.493 166.78 202.837Z" fill="#CCCCCC"/>
<path d="M160.499 247.01H166.657L169.586 221.667H160.498L160.499 247.01Z" fill="#A0616A"/>
<path d="M178.531 253.11L159.179 253.111L159.179 245.133L171.054 245.133C173.037 245.132 174.939 245.973 176.341 247.469C177.743 248.965 178.531 250.994 178.531 253.11Z" fill="#2F2E41"/>
<path d="M170.11 243.343L175.985 241.376L171.67 216.26L162.999 219.163L170.11 243.343Z" fill="#A0616A"/>
<path d="M189.027 243.403L170.563 249.586L168.325 241.974L179.655 238.18C181.547 237.546 183.597 237.74 185.355 238.72C187.113 239.7 188.434 241.384 189.027 243.403Z" fill="#2F2E41"/>
<path d="M165.991 231.679L154.727 200.129C152.2 200.762 131.008 205.766 123.91 197.702C121.477 194.938 121.003 190.934 122.5 185.8L126.642 180.245L126.771 180.253C128.337 180.341 165.16 182.543 167.684 194.395C169.812 204.387 173.699 223.016 174.84 228.488C174.955 229.055 174.876 229.647 174.617 230.157C174.357 230.667 173.935 231.061 173.426 231.266L168.897 233.078C168.644 233.18 168.377 233.232 168.107 233.232C167.648 233.232 167.201 233.083 166.823 232.806C166.445 232.529 166.155 232.136 165.991 231.679Z" fill="#2F2E41"/>
<path d="M159.462 235.43L148.198 203.88C145.67 204.513 124.478 209.517 117.38 201.453C114.948 198.689 114.474 194.685 115.97 189.551L120.113 183.997L120.241 184.004C121.808 184.092 158.631 186.294 161.155 198.147C163.283 208.139 167.17 226.768 168.31 232.239C168.426 232.806 168.347 233.399 168.088 233.909C167.828 234.419 167.406 234.812 166.897 235.017L162.367 236.83C162.115 236.931 161.847 236.983 161.578 236.983C161.119 236.983 160.671 236.835 160.294 236.557C159.916 236.28 159.626 235.887 159.462 235.43Z" fill="#2F2E41"/>
<path d="M174.684 159.8C174.517 160.037 174.369 160.288 174.239 160.551L149.468 163.335L145.903 158.119L137.821 162.832L144.825 175.491L175.204 167.226C175.971 168.023 176.947 168.553 178.002 168.744C179.057 168.935 180.142 168.779 181.112 168.296C182.082 167.813 182.892 167.027 183.433 166.041C183.974 165.056 184.221 163.918 184.141 162.779C184.061 161.64 183.658 160.554 182.986 159.665C182.313 158.776 181.403 158.127 180.377 157.803C179.35 157.48 178.255 157.498 177.239 157.854C176.222 158.211 175.33 158.889 174.684 159.8Z" fill="#A0616A"/>
<path d="M115.812 191.217C115.473 190.957 115.208 190.601 115.047 190.19C114.885 189.778 114.834 189.327 114.898 188.887C116.296 179.056 114.688 164.974 113.093 154.892C112.766 152.846 112.893 150.747 113.464 148.763C114.034 146.779 115.032 144.965 116.378 143.467C117.723 141.969 119.379 140.827 121.212 140.135C123.045 139.442 125.005 139.217 126.934 139.478C128.613 139.714 130.276 140.064 131.913 140.525C134.632 141.256 137.038 142.952 138.734 145.335C140.43 147.718 141.316 150.646 141.246 153.638C141.007 163.367 142.859 175.506 143.666 180.274C143.721 180.601 143.712 180.937 143.64 181.261C143.568 181.585 143.434 181.889 143.247 182.155C143.063 182.419 142.83 182.638 142.563 182.8C142.295 182.961 141.998 183.061 141.692 183.093C132.748 184.067 123.103 188.721 118.15 191.409C117.831 191.584 117.479 191.676 117.12 191.677C116.649 191.676 116.191 191.515 115.812 191.217Z" fill="#0794EB"/>
<path d="M139.955 165.862C139.678 165.746 139.426 165.573 139.213 165.352C138.999 165.132 138.829 164.868 138.712 164.577L133.724 152.282C133.422 151.539 133.26 150.74 133.248 149.93C133.235 149.12 133.373 148.316 133.652 147.563C133.931 146.81 134.346 146.123 134.874 145.541C135.402 144.96 136.032 144.495 136.729 144.173C137.425 143.851 138.174 143.679 138.933 143.667C139.692 143.654 140.445 143.801 141.151 144.1C141.856 144.398 142.5 144.842 143.044 145.406C143.589 145.969 144.024 146.642 144.325 147.386L149.313 159.681C149.551 160.268 149.56 160.932 149.339 161.526C149.119 162.12 148.687 162.597 148.137 162.852L141.684 165.833C141.412 165.959 141.119 166.027 140.822 166.032C140.525 166.037 140.23 165.979 139.955 165.862Z" fill="#0794EB"/>
<path d="M151.078 158.728C150.912 158.965 150.763 159.216 150.634 159.479L125.863 162.264L122.297 157.047L114.216 161.76L121.219 174.419L151.599 166.154C152.365 166.951 153.341 167.481 154.396 167.672C155.452 167.863 156.537 167.707 157.507 167.224C158.477 166.741 159.286 165.955 159.827 164.969C160.368 163.984 160.615 162.846 160.535 161.707C160.456 160.568 160.053 159.482 159.38 158.593C158.708 157.704 157.798 157.055 156.771 156.732C155.745 156.408 154.65 156.426 153.633 156.783C152.616 157.139 151.725 157.818 151.078 158.728Z" fill="#A0616A"/>
<path d="M116.349 166.398C116.073 166.282 115.821 166.109 115.607 165.888C115.394 165.668 115.224 165.404 115.107 165.113L110.119 152.818C109.817 152.075 109.655 151.276 109.642 150.466C109.63 149.656 109.767 148.852 110.046 148.099C110.325 147.346 110.741 146.659 111.268 146.077C111.796 145.496 112.427 145.031 113.123 144.709C113.82 144.387 114.569 144.215 115.327 144.203C116.086 144.19 116.84 144.337 117.545 144.635C118.251 144.934 118.894 145.378 119.439 145.941C119.984 146.505 120.419 147.178 120.72 147.922L125.708 160.217C125.945 160.804 125.954 161.467 125.734 162.062C125.513 162.656 125.081 163.133 124.532 163.388L118.079 166.369C117.807 166.495 117.514 166.563 117.217 166.568C116.92 166.573 116.625 166.515 116.349 166.398Z" fill="#0794EB"/>
<path d="M126.016 135.295C132.829 135.295 138.352 129.402 138.352 122.132C138.352 114.862 132.829 108.969 126.016 108.969C119.204 108.969 113.681 114.862 113.681 122.132C113.681 129.402 119.204 135.295 126.016 135.295Z" fill="#A0616A"/>
<path d="M117.197 131.166C117.144 131.001 117.127 130.825 117.147 130.652C117.168 130.478 117.226 130.312 117.316 130.167C117.406 130.021 117.526 129.899 117.667 129.81C117.808 129.722 117.966 129.668 118.129 129.655C118.463 129.674 118.79 129.766 119.09 129.924C119.39 130.082 119.657 130.303 119.875 130.574C120.321 131.123 120.841 131.6 121.417 131.987C122.014 132.308 122.823 132.263 123.163 131.651C123.483 131.076 123.264 130.307 123.071 129.639C122.578 127.941 122.303 126.18 122.252 124.403C122.196 122.42 122.458 120.351 123.487 118.804C124.815 116.808 127.19 116.05 129.437 116.105C131.684 116.16 133.894 116.9 136.12 117.368C136.889 117.529 137.792 117.612 138.306 116.976C138.852 116.301 138.651 115.207 138.419 114.295C137.816 111.927 137.176 109.48 135.775 107.568C134.259 105.581 132.095 104.281 129.717 103.929C127.434 103.627 125.117 103.908 122.956 104.748C119.434 105.932 116.336 108.235 114.075 111.35C111.743 114.662 110.736 118.824 111.273 122.926C111.797 126.499 113.572 129.726 116.238 131.959L117.197 131.166Z" fill="#2F2E41"/>
<path d="M70.0961 162.854C70.7166 155.724 72.4304 148.75 75.1691 142.212C75.9323 140.393 76.7724 138.613 77.6894 136.874C77.7354 136.783 77.7464 136.677 77.7203 136.577C77.6941 136.478 77.6327 136.393 77.5491 136.341C77.4655 136.288 77.3661 136.273 77.2721 136.297C77.178 136.322 77.0965 136.385 77.0447 136.472C73.7102 142.807 71.3741 149.684 70.1299 156.827C69.7838 158.822 69.5237 160.831 69.3495 162.854C69.3053 163.365 70.0521 163.361 70.0961 162.854Z" fill="#3F3D56"/>
<path d="M79.4979 138.152C82.1092 138.152 84.2262 135.893 84.2262 133.106C84.2262 130.32 82.1092 128.061 79.4979 128.061C76.8865 128.061 74.7695 130.32 74.7695 133.106C74.7695 135.893 76.8865 138.152 79.4979 138.152Z" fill="#E77664"/>
<path d="M70.5803 162.988C70.9828 158.362 72.0947 153.838 73.8713 149.597C74.3665 148.416 74.9115 147.262 75.5064 146.134C75.5362 146.075 75.5434 146.006 75.5264 145.941C75.5094 145.876 75.4696 145.822 75.4154 145.788C75.3611 145.754 75.2967 145.744 75.2357 145.76C75.1746 145.776 75.1217 145.816 75.0882 145.873C72.9249 149.983 71.4094 154.444 70.6022 159.078C70.3777 160.373 70.2089 161.676 70.096 162.988C70.0672 163.319 70.5518 163.317 70.5803 162.988Z" fill="#3F3D56"/>
<path d="M76.6788 146.963C78.3729 146.963 79.7463 145.497 79.7463 143.689C79.7463 141.882 78.3729 140.416 76.6788 140.416C74.9847 140.416 73.6113 141.882 73.6113 143.689C73.6113 145.497 74.9847 146.963 76.6788 146.963Z" fill="#FFD53E"/>
<path d="M69.9686 162.679C67.6195 158.768 65.8885 154.471 64.8445 149.96C64.5546 148.705 64.3189 147.437 64.1375 146.157C64.127 146.091 64.0929 146.031 64.0423 145.992C63.9917 145.952 63.9286 145.935 63.8663 145.944C63.8041 145.953 63.7475 145.987 63.7085 146.039C63.6695 146.092 63.6512 146.159 63.6574 146.225C64.3207 150.886 65.6973 155.398 67.7322 159.582C68.3011 160.75 68.9193 161.888 69.5867 162.997C69.7549 163.277 70.1357 162.957 69.9686 162.679Z" fill="#3F3D56"/>
<path d="M63.6534 146.733C65.3476 146.733 66.7209 145.267 66.7209 143.46C66.7209 141.652 65.3476 140.186 63.6534 140.186C61.9593 140.186 60.5859 141.652 60.5859 143.46C60.5859 145.267 61.9593 146.733 63.6534 146.733Z" fill="#E77664"/>
<path d="M60.5518 165.575V159.144C60.5524 158.505 60.7908 157.892 61.2145 157.44C61.6382 156.988 62.2126 156.733 62.8119 156.733H76.8747C77.4739 156.733 78.0484 156.988 78.4721 157.44C78.8958 157.892 79.1341 158.505 79.1348 159.144V165.575C79.1341 166.215 78.8958 166.828 78.4721 167.28C78.0484 167.732 77.4739 167.986 76.8747 167.987H62.8119C62.2126 167.986 61.6382 167.732 61.2145 167.28C60.7908 166.828 60.5524 166.215 60.5518 165.575Z" fill="#34A566"/>
<path d="M186.619 163.715H146.941C145.971 163.715 145.184 164.555 145.184 165.591C145.184 166.627 145.971 167.466 146.941 167.466H186.619C187.59 167.466 188.377 166.627 188.377 165.591C188.377 164.555 187.59 163.715 186.619 163.715Z" fill="#CCCCCC"/>
<path d="M213.238 167.466H168.538C167.673 167.465 166.843 167.098 166.231 166.445C165.619 165.792 165.274 164.907 165.273 163.983V137.723C165.274 136.799 165.619 135.914 166.231 135.261C166.843 134.608 167.673 134.24 168.538 134.239H213.238C214.103 134.24 214.933 134.608 215.545 135.261C216.157 135.914 216.501 136.799 216.502 137.723V163.983C216.501 164.907 216.157 165.792 215.545 166.445C214.933 167.098 214.103 167.465 213.238 167.466Z" fill="#CCCCCC"/>
<path d="M190.888 154.068C192.553 154.068 193.902 152.629 193.902 150.853C193.902 149.077 192.553 147.637 190.888 147.637C189.224 147.637 187.875 149.077 187.875 150.853C187.875 152.629 189.224 154.068 190.888 154.068Z" fill="white"/>
<path d="M326.996 202.837C326.996 198.694 312.38 195.334 294.35 195.334C276.32 195.334 261.704 198.694 261.704 202.837C261.704 205.493 267.713 207.825 276.771 209.158V250.267C276.771 251.19 277.115 252.077 277.728 252.73C278.34 253.383 279.17 253.75 280.036 253.75C280.902 253.75 281.732 253.383 282.344 252.73C282.957 252.077 283.301 251.19 283.301 250.267V209.899C286.752 210.184 290.471 210.34 294.35 210.34C298.229 210.34 301.948 210.184 305.399 209.899V250.267C305.399 251.19 305.743 252.077 306.356 252.73C306.968 253.383 307.798 253.75 308.664 253.75C309.53 253.75 310.36 253.383 310.972 252.73C311.585 252.077 311.929 251.19 311.929 250.267V209.158C320.987 207.825 326.996 205.493 326.996 202.837Z" fill="#CCCCCC"/>
<path d="M297.96 134.163C305.727 134.163 312.023 127.444 312.023 119.157C312.023 110.869 305.727 104.151 297.96 104.151C290.194 104.151 283.897 110.869 283.897 119.157C283.897 127.444 290.194 134.163 297.96 134.163Z" fill="#2F2E41"/>
<path d="M262.964 247.546H256.806L253.877 222.203H262.965L262.964 247.546Z" fill="#FFB8B8"/>
<path d="M252.408 245.669H264.283V253.647H244.931C244.931 252.599 245.124 251.562 245.5 250.594C245.876 249.626 246.426 248.746 247.121 248.005C247.815 247.264 248.639 246.677 249.546 246.276C250.453 245.875 251.426 245.669 252.408 245.669Z" fill="#2F2E41"/>
<path d="M253.351 243.879L247.477 241.912L251.792 216.796L260.463 219.699L253.351 243.879Z" fill="#FFB8B8"/>
<path d="M243.808 238.716L255.138 242.51L252.899 250.122L234.435 243.939C234.729 242.939 235.205 242.011 235.835 241.208C236.465 240.404 237.237 239.741 238.108 239.256C238.978 238.771 239.929 238.474 240.907 238.381C241.885 238.288 242.871 238.402 243.808 238.716Z" fill="#2F2E41"/>
<path d="M255.355 233.768C255.085 233.768 254.818 233.716 254.565 233.614L250.036 231.802C249.527 231.597 249.105 231.203 248.845 230.693C248.586 230.183 248.507 229.591 248.622 229.024C249.763 223.552 253.65 204.923 255.778 194.931C258.302 183.079 295.125 180.877 296.691 180.789L296.82 180.781L300.962 186.336C302.459 191.469 301.985 195.474 299.552 198.238C292.454 206.302 271.262 201.298 268.735 200.664L257.471 232.215C257.307 232.672 257.017 233.065 256.639 233.342C256.261 233.619 255.813 233.768 255.355 233.768Z" fill="#2F2E41"/>
<path d="M261.884 237.519C261.615 237.519 261.347 237.467 261.095 237.366L256.565 235.553C256.056 235.348 255.634 234.954 255.374 234.445C255.115 233.935 255.036 233.342 255.151 232.775C256.292 227.304 260.179 208.675 262.307 198.682C264.831 186.83 301.654 184.628 303.221 184.54L303.349 184.533L307.492 190.087C308.988 195.221 308.514 199.225 306.081 201.989C298.984 210.052 277.791 205.049 275.264 204.416L264 235.966C263.836 236.423 263.546 236.816 263.168 237.093C262.79 237.371 262.343 237.519 261.884 237.519Z" fill="#2F2E41"/>
<path d="M248.779 160.335C248.945 160.573 249.094 160.824 249.223 161.087L273.994 163.871L277.559 158.655L285.641 163.368L278.637 176.027L248.258 167.762C247.492 168.559 246.516 169.089 245.46 169.28C244.405 169.471 243.32 169.315 242.35 168.832C241.38 168.349 240.571 167.563 240.03 166.577C239.489 165.592 239.241 164.454 239.321 163.315C239.401 162.176 239.804 161.089 240.476 160.201C241.149 159.312 242.059 158.663 243.086 158.339C244.112 158.016 245.207 158.034 246.224 158.39C247.241 158.747 248.132 159.425 248.779 160.335Z" fill="#FFB8B8"/>
<path d="M306.342 192.213C305.983 192.212 305.631 192.12 305.312 191.945C300.359 189.257 290.714 184.603 281.77 183.629C281.464 183.597 281.167 183.497 280.9 183.335C280.632 183.174 280.399 182.954 280.215 182.691C280.028 182.425 279.894 182.121 279.822 181.797C279.75 181.473 279.741 181.137 279.796 180.81C280.604 176.042 282.455 163.903 282.216 154.174C282.146 151.182 283.032 148.254 284.728 145.871C286.424 143.488 288.83 141.792 291.549 141.061C293.186 140.6 294.849 140.25 296.528 140.014C298.457 139.753 300.417 139.978 302.25 140.671C304.083 141.363 305.739 142.505 307.085 144.003C308.43 145.501 309.428 147.315 309.998 149.299C310.569 151.283 310.696 153.382 310.369 155.428C308.774 165.51 307.166 179.592 308.564 189.423C308.628 189.863 308.577 190.314 308.415 190.725C308.254 191.137 307.989 191.493 307.65 191.753C307.271 192.05 306.813 192.212 306.342 192.213Z" fill="#0794EB"/>
<path d="M282.675 166.568C282.366 166.568 282.061 166.5 281.778 166.369L275.325 163.388C274.776 163.133 274.343 162.656 274.123 162.062C273.902 161.467 273.912 160.804 274.149 160.217L279.137 147.922C279.438 147.178 279.873 146.505 280.418 145.941C280.962 145.378 281.606 144.934 282.311 144.635C283.017 144.337 283.771 144.19 284.529 144.203C285.288 144.215 286.037 144.387 286.734 144.709C287.43 145.031 288.06 145.496 288.588 146.077C289.116 146.659 289.532 147.346 289.811 148.099C290.09 148.852 290.227 149.656 290.214 150.466C290.202 151.276 290.04 152.075 289.738 152.818L284.75 165.113C284.574 165.545 284.285 165.912 283.916 166.171C283.548 166.43 283.116 166.568 282.675 166.568Z" fill="#0794EB"/>
<path d="M297.446 135.831C304.259 135.831 309.782 129.938 309.782 122.668C309.782 115.398 304.259 109.505 297.446 109.505C290.633 109.505 285.11 115.398 285.11 122.668C285.11 129.938 290.633 135.831 297.446 135.831Z" fill="#FFB8B8"/>
<path d="M284.889 116.201C290.732 120.007 297.319 122.323 304.138 122.969L302.109 120.375C303.586 120.957 305.141 121.287 306.715 121.35C308.287 121.324 309.934 120.678 310.826 119.297C311.224 118.61 311.461 117.831 311.515 117.026C311.57 116.22 311.441 115.413 311.14 114.672C310.522 113.195 309.56 111.91 308.345 110.942C306.191 109.124 303.65 107.903 300.947 107.388C298.244 106.872 295.463 107.078 292.853 107.988C291.063 108.559 289.459 109.656 288.226 111.155C287.057 112.694 284.806 114.066 285.404 115.941L284.889 116.201Z" fill="#2F2E41"/>
<path d="M299.52 105.578C295.63 101.368 290.922 98.1197 285.727 96.0609C282.393 94.7429 278.764 93.9285 275.278 94.677C271.792 95.4255 268.496 97.9987 267.523 101.648C266.728 104.632 267.549 107.845 268.783 110.655C270.017 113.464 271.665 116.069 272.663 118.983C273.681 121.956 273.987 125.154 273.554 128.285C273.12 131.417 271.96 134.384 270.18 136.916C268.399 139.448 266.054 141.465 263.358 142.785C260.661 144.104 257.698 144.685 254.738 144.473C258.163 144.963 261.32 146.68 264.668 147.594C268.016 148.508 271.967 148.446 274.455 145.887C277.087 143.179 277.14 138.777 277.013 134.878L276.445 117.49C276.349 114.534 276.266 111.484 277.265 108.725C278.264 105.966 280.638 103.55 283.41 103.575C285.511 103.594 287.37 104.952 289.055 106.291C290.739 107.63 292.522 109.059 294.615 109.258C296.707 109.457 299.096 107.805 298.94 105.57" fill="#2F2E41"/>
<path d="M242.181 150.641L270.584 151.356L274.699 183.756L248.468 184.384L242.181 150.641Z" fill="#C2EDFF"/>
<path d="M272.384 159.264C272.55 159.501 272.699 159.752 272.828 160.015L297.599 162.8L301.165 157.583L309.246 162.296L302.243 174.955L271.863 166.69C271.097 167.487 270.121 168.017 269.066 168.208C268.011 168.399 266.926 168.243 265.956 167.76C264.985 167.277 264.176 166.491 263.635 165.505C263.094 164.52 262.847 163.382 262.927 162.243C263.007 161.104 263.41 160.018 264.082 159.129C264.754 158.24 265.664 157.591 266.691 157.268C267.718 156.944 268.812 156.962 269.829 157.318C270.846 157.675 271.737 158.353 272.384 159.264Z" fill="#FFB8B8"/>
<path d="M306.281 167.104C305.972 167.104 305.667 167.036 305.383 166.904L298.931 163.924C298.381 163.669 297.949 163.192 297.728 162.598C297.508 162.003 297.517 161.34 297.754 160.753L302.742 148.457C303.043 147.714 303.479 147.041 304.023 146.477C304.568 145.913 305.211 145.47 305.917 145.171C306.622 144.873 307.376 144.726 308.135 144.739C308.894 144.751 309.643 144.923 310.339 145.245C311.036 145.566 311.666 146.031 312.194 146.613C312.722 147.195 313.137 147.882 313.416 148.635C313.695 149.388 313.832 150.192 313.82 151.002C313.807 151.812 313.645 152.611 313.343 153.354L308.355 165.649C308.18 166.081 307.89 166.448 307.522 166.707C307.153 166.965 306.722 167.104 306.281 167.104Z" fill="#0794EB"/>
<path d="M247.893 166.931H47.9999C47.1341 166.931 46.3038 167.298 45.6915 167.951C45.0793 168.604 44.7354 169.49 44.7354 170.414C44.7354 171.338 45.0793 172.224 45.6915 172.877C46.3038 173.531 47.1341 173.898 47.9999 173.898H53.7758V249.731C53.7758 250.655 54.1197 251.541 54.7319 252.194C55.3442 252.847 56.1745 253.214 57.0403 253.214C57.9062 253.214 58.7365 252.847 59.3487 252.194C59.961 251.541 60.3049 250.655 60.3049 249.731V180.591L96.904 251.375C97.3379 252.173 98.0507 252.755 98.8862 252.993C99.7216 253.231 100.611 253.105 101.36 252.644C102.109 252.183 102.656 251.423 102.88 250.532C103.105 249.641 102.989 248.691 102.558 247.891L64.2996 173.898H239.104V173.943L200.869 247.891C200.436 248.691 200.318 249.642 200.542 250.535C200.767 251.427 201.314 252.188 202.063 252.65C202.813 253.112 203.704 253.237 204.541 252.998C205.377 252.759 206.09 252.175 206.523 251.375L239.104 188.362V249.731C239.104 250.655 239.448 251.541 240.06 252.194C240.672 252.847 241.503 253.214 242.369 253.214C243.234 253.214 244.065 252.847 244.677 252.194C245.289 251.541 245.633 250.655 245.633 249.731V175.734L246.583 173.898H247.893C248.759 173.898 249.589 173.531 250.202 172.877C250.814 172.224 251.158 171.338 251.158 170.414C251.158 169.49 250.814 168.604 250.202 167.951C249.589 167.298 248.759 166.931 247.893 166.931Z" fill="#3F3D56"/>
<path d="M371.402 254H0.598238C0.439935 254 0.288276 253.932 0.1765 253.812C0.0647248 253.693 0.00195312 253.531 0.00195312 253.362C0.00195312 253.193 0.0647248 253.031 0.1765 252.911C0.288276 252.792 0.439935 252.724 0.598238 252.724H371.402C371.561 252.724 371.713 252.791 371.825 252.911C371.937 253.03 372 253.193 372 253.362C372 253.531 371.937 253.693 371.825 253.813C371.713 253.933 371.561 254 371.402 254Z" fill="#3F3D56"/>
<path d="M57 71C63.6274 71 69 65.4036 69 58.5C69 51.5964 63.6274 46 57 46C50.3726 46 45 51.5964 45 58.5C45 65.4036 50.3726 71 57 71Z" fill="#E6E6E6"/>
<path d="M68 58.5C68.0012 60.1384 67.6185 61.7543 66.8825 63.218C66.1465 64.6818 65.0778 65.9528 63.762 66.9289C63.674 66.9948 63.5843 67.0589 63.4941 67.1213C61.7345 68.3444 59.6429 69 57.5 69C55.3571 69 53.2655 68.3444 51.5059 67.1213C51.4157 67.0589 51.326 66.9948 51.238 66.9289C49.9231 65.9519 48.855 64.6808 48.1191 63.2172C47.3833 61.7536 47 60.1382 47 58.5C47 56.8618 47.3833 55.2464 48.1191 53.7828C48.855 52.3192 49.9231 51.0481 51.238 50.0711C51.326 50.0052 51.4157 49.9411 51.5059 49.8786C53.2655 48.6555 55.3571 48 57.5 48C59.6429 48 61.7345 48.6555 63.4941 49.8786C63.5843 49.9411 63.674 50.0052 63.762 50.0711C65.0778 51.0472 66.1465 52.3182 66.8825 53.782C67.6185 55.2457 68.0012 56.8616 68 58.5Z" fill="white"/>
<path d="M57 68C62.5228 68 67 63.7467 67 58.5C67 53.2533 62.5228 49 57 49C51.4772 49 47 53.2533 47 58.5C47 63.7467 51.4772 68 57 68Z" fill="#1A80F8" fill-opacity="0.45"/>
<path opacity="0.2" d="M57.8052 49C57.6658 49 57.5272 49.0038 57.3894 49.0101C59.7133 49.2211 61.8727 50.3369 63.4301 52.1315C64.9876 53.926 65.8265 56.2652 65.777 58.6749C65.7275 61.0847 64.7932 63.3849 63.1635 65.1096C61.5338 66.8343 59.3305 67.8544 57 67.9633C57.2654 67.9871 57.5338 68 57.8052 68C60.2438 68 62.5825 66.9991 64.3069 65.2175C66.0313 63.4359 67 61.0196 67 58.5C67 55.9804 66.0313 53.5641 64.3069 51.7825C62.5825 50.0009 60.2438 49 57.8052 49Z" fill="black"/>
<path d="M57.5 49C57.3675 49.0001 57.2404 49.0167 57.1467 49.0461C57.053 49.0756 57.0002 49.1155 57 49.1571V49.8429C57 49.8845 57.0527 49.9245 57.1464 49.954C57.2402 49.9834 57.3674 50 57.5 50C57.6326 50 57.7598 49.9834 57.8536 49.954C57.9473 49.9245 58 49.8845 58 49.8429V49.1571C57.9998 49.1155 57.947 49.0756 57.8533 49.0461C57.7596 49.0167 57.6325 49.0001 57.5 49Z" fill="white"/>
<path d="M63.9655 50.2207C63.839 50.1454 63.7101 50.0721 63.5803 50.0008C63.5024 49.9967 63.4246 50.0089 63.3545 50.0361C63.2843 50.0633 63.2243 50.1046 63.1804 50.1558L62.0778 51.4424C62.0108 51.5206 61.9857 51.6168 62.0079 51.7098C62.0301 51.8027 62.0978 51.8849 62.1962 51.9381C62.2946 51.9914 62.4155 52.0114 62.5324 51.9937C62.6494 51.9761 62.7527 51.9223 62.8197 51.844L63.9223 50.5574C63.9642 50.5086 63.9901 50.4523 63.9977 50.3934C64.0052 50.3346 63.9942 50.2752 63.9655 50.2207Z" fill="white"/>
<path d="M66.9879 55.3421C66.9797 55.2753 66.9676 55.2145 66.9524 55.1632C66.9371 55.1119 66.919 55.0711 66.899 55.0431C66.879 55.0151 66.8575 55.0005 66.8358 55C66.814 54.9996 66.7925 55.0133 66.7724 55.0405L66.1031 55.9422C66.0624 55.9971 66.03 56.1033 66.013 56.2375C65.996 56.3716 65.9957 56.5227 66.0122 56.6575C66.0287 56.7924 66.0607 56.9 66.1011 56.9567C66.1415 57.0133 66.187 57.0145 66.2277 56.9598L66.897 56.0581C66.9376 56.0029 66.97 55.8965 66.987 55.7623C67.004 55.6281 67.0043 55.477 66.9879 55.3421Z" fill="white"/>
<path d="M51.9611 51.4424L51.4098 50.1558C51.3878 50.1046 51.3578 50.0633 51.3228 50.0361C51.2877 50.0089 51.2488 49.9967 51.2098 50.0008C51.145 50.0721 51.0805 50.1454 51.0172 50.2207C51.0029 50.2752 50.9974 50.3346 51.0012 50.3934C51.0049 50.4523 51.0179 50.5086 51.0389 50.5574L51.5902 51.844C51.6237 51.9222 51.6753 51.9761 51.7338 51.9937C51.7922 52.0114 51.8527 51.9914 51.9019 51.9381C51.9511 51.8849 51.985 51.8027 51.9961 51.7098C52.0072 51.6168 51.9946 51.5206 51.9611 51.4424Z" fill="white"/>
<path d="M49.6908 55.9422L47.6832 55.0404C47.5612 54.9856 47.4246 54.9866 47.3033 55.0433C47.182 55.0999 47.0861 55.2076 47.0365 55.3425C46.987 55.4774 46.9879 55.6286 47.0391 55.7628C47.0903 55.897 47.1875 56.0032 47.3095 56.058L49.3171 56.9598C49.4391 57.0145 49.5757 57.0133 49.6969 56.9567C49.8181 56.9 49.914 56.7924 49.9635 56.6575C50.013 56.5226 50.0121 56.3715 49.961 56.2374C49.9099 56.1033 49.8127 55.9971 49.6908 55.9422Z" fill="white"/>
<path d="M57.5 67C57.3675 67.0001 57.2404 67.0333 57.1467 67.0922C57.053 67.1511 57.0002 67.231 57 67.3143V68.6857C57 68.7691 57.0527 68.849 57.1464 68.9079C57.2402 68.9669 57.3674 69 57.5 69C57.6326 69 57.7598 68.9669 57.8536 68.9079C57.9473 68.849 58 68.7691 58 68.6857V67.3143C57.9998 67.231 57.947 67.1511 57.8533 67.0922C57.7596 67.0333 57.6325 67.0001 57.5 67Z" fill="white"/>
<path d="M63.9223 66.4426L62.8197 65.156C62.7865 65.1172 62.7441 65.0841 62.6948 65.0584C62.6455 65.0327 62.5903 65.015 62.5324 65.0063C62.4745 64.9975 62.415 64.9979 62.3573 65.0075C62.2997 65.017 62.2449 65.0355 62.1962 65.0619C62.1475 65.0883 62.1058 65.122 62.0735 65.1612C62.0411 65.2004 62.0189 65.2442 62.0079 65.2902C61.9969 65.3363 61.9974 65.3836 62.0094 65.4294C62.0214 65.4753 62.0447 65.5189 62.0778 65.5576L63.1804 66.8442C63.2243 66.8954 63.2843 66.9367 63.3545 66.9639C63.4246 66.9911 63.5024 67.0033 63.5803 66.9992C63.7101 66.9279 63.839 66.8546 63.9655 66.7793C63.9942 66.7248 64.0052 66.6654 63.9977 66.6066C63.9901 66.5477 63.9642 66.4914 63.9223 66.4426Z" fill="white"/>
<path d="M66.8969 61.4711L66.2277 61.0202C66.1871 60.9928 66.1415 60.9933 66.1011 61.0216C66.0607 61.05 66.0287 61.1038 66.0122 61.1712C65.9957 61.2387 65.996 61.3143 66.013 61.3814C66.0301 61.4485 66.0625 61.5016 66.1032 61.529L66.7724 61.9799C66.813 62.0072 66.8586 62.0067 66.899 61.9783C66.9394 61.95 66.9713 61.8962 66.9878 61.8288C67.0043 61.7613 67.004 61.6858 66.987 61.6187C66.97 61.5516 66.9376 61.4985 66.8969 61.4711Z" fill="white"/>
<path d="M51.9019 65.0618C51.8527 65.0086 51.7922 64.9886 51.7338 65.0063C51.6753 65.0239 51.6237 65.0777 51.5902 65.1559L51.0389 66.4425C51.0179 66.4914 51.0049 66.5477 51.0012 66.6066C50.9974 66.6654 51.0029 66.7247 51.0172 66.7793C51.0805 66.8546 51.145 66.9279 51.2098 66.9992C51.2488 67.0033 51.2877 66.9911 51.3228 66.9639C51.3578 66.9367 51.3878 66.8954 51.4098 66.8442L51.9611 65.5576C51.9777 65.5188 51.9893 65.4753 51.9953 65.4294C52.0013 65.3835 52.0016 65.3362 51.9961 65.2902C51.9906 65.2442 51.9794 65.2003 51.9633 65.1611C51.9471 65.122 51.9263 65.0882 51.9019 65.0618Z" fill="white"/>
<path d="M49.9636 61.171C49.9391 61.1376 49.9029 61.1073 49.8571 61.0816C49.8114 61.056 49.7569 61.0356 49.6969 61.0216C49.6369 61.0076 49.5724 61.0002 49.5073 61C49.4421 60.9998 49.3775 61.0067 49.3172 61.0202L47.3092 61.4711C47.1873 61.4986 47.0901 61.5517 47.039 61.6187C46.9879 61.6858 46.987 61.7613 47.0365 61.8288C47.0861 61.8962 47.182 61.95 47.3032 61.9783C47.4244 62.0067 47.561 62.0072 47.683 61.9799L49.691 61.529C49.8128 61.5014 49.9099 61.4483 49.961 61.3812C50.0121 61.3141 50.013 61.2385 49.9636 61.171Z" fill="white"/>
<path d="M57.9907 58.4833C58.0201 58.6352 57.9792 58.791 57.8768 58.9166C57.7744 59.0422 57.619 59.1273 57.4445 59.1533L51.7795 59.9918C51.693 60.0046 51.6046 60.0024 51.5191 59.9855C51.4336 59.9685 51.3528 59.9371 51.2813 59.8929C51.2098 59.8488 51.149 59.7929 51.1024 59.7283C51.0557 59.6637 51.0242 59.5918 51.0095 59.5166C50.9948 59.4414 50.9972 59.3644 51.0167 59.29C51.0362 59.2157 51.0723 59.1454 51.123 59.0832C51.1738 59.021 51.2381 58.968 51.3123 58.9274C51.3865 58.8869 51.4692 58.8594 51.5556 58.8466L57.2207 58.0081C57.3952 57.9825 57.5742 58.0181 57.7186 58.1072C57.8629 58.1963 57.9608 58.3315 57.9907 58.4833Z" fill="#3F3D56"/>
<path d="M63.8733 64.87C63.7916 64.9528 63.6806 64.9995 63.5646 65C63.4487 65.0005 63.3373 64.9546 63.2549 64.8725L57.129 58.7526C57.0468 58.6703 57.0004 58.5586 57 58.4419C56.9996 58.3251 57.0452 58.213 57.1269 58.1302C57.2085 58.0473 57.3195 58.0005 57.4354 58C57.5513 57.9995 57.6627 58.0453 57.745 58.1275L63.8709 64.2473C63.9531 64.3296 63.9995 64.4414 64 64.5581C64.0005 64.6749 63.9549 64.787 63.8733 64.87Z" fill="#3F3D56"/>
<path d="M57.5 60C57.7761 60 58 59.5523 58 59C58 58.4477 57.7761 58 57.5 58C57.2239 58 57 58.4477 57 59C57 59.5523 57.2239 60 57.5 60Z" fill="#CCCCCC"/>
<path d="M51.8503 46.0701C50.7938 47.9026 49.1818 49.1188 47.1939 49.9177C47.1546 49.9502 47.1099 49.9738 47.0623 49.9872C47.0148 50.0006 46.9653 50.0035 46.9167 49.9958C46.8681 49.9881 46.8214 49.9699 46.7792 49.9423C46.737 49.9147 46.7001 49.8782 46.6707 49.8348C45.5908 48.2442 45.8347 45.9707 47.2598 44.7553C47.6044 44.4619 47.9983 44.247 48.4188 44.123C48.8393 43.999 49.2779 43.9684 49.7091 44.0329C50.1404 44.0974 50.5558 44.2558 50.9311 44.4989C51.3064 44.742 51.6342 45.0649 51.8955 45.4489L51.9254 45.4929C51.9548 45.5362 51.9762 45.5856 51.9884 45.638C52.0005 45.6905 52.0032 45.7451 51.9962 45.7987C51.9892 45.8523 51.9728 45.9038 51.9477 45.9504C51.9227 45.997 51.8896 46.0376 51.8503 46.0701Z" fill="#0794EB"/>
<path d="M62.1219 45.4489C62.4267 45.0649 62.8092 44.742 63.2471 44.4989C63.6849 44.2558 64.1695 44.0974 64.6727 44.0329C65.1758 43.9684 65.6875 43.999 66.1781 44.123C66.6686 44.247 67.1282 44.4619 67.5302 44.7553C69.1929 45.9707 69.4773 48.2442 68.2175 49.8349C68.1832 49.8782 68.1402 49.9147 68.0909 49.9423C68.0417 49.9699 67.9872 49.9881 67.9305 49.9958C67.8738 50.0035 67.8161 50.0006 67.7606 49.9872C67.7051 49.9738 67.653 49.9502 67.6072 49.9177C65.4541 49.1382 63.6884 47.7892 62.1746 46.0701C62.0821 46.0045 62.0209 45.9069 62.0044 45.7987C61.988 45.6904 62.0177 45.5804 62.087 45.4929L62.1219 45.4489Z" fill="#0794EB"/>
<path d="M62.1315 69.0412C62.0721 69.0834 62.0282 69.1536 62.0097 69.2365C61.9912 69.3193 61.9994 69.4081 62.0326 69.4833L63.518 72.8338C63.5514 72.909 63.607 72.9644 63.6727 72.9878C63.7384 73.0112 63.8087 73.0007 63.8683 72.9586C63.9279 72.9166 63.9717 72.8463 63.9903 72.7634C64.0089 72.6805 64.0006 72.5917 63.9673 72.5165L62.4818 69.166C62.4484 69.0909 62.3928 69.0357 62.3271 69.0122C62.2615 68.9888 62.1911 68.9992 62.1315 69.0412Z" fill="#E6E6E6"/>
<path d="M52.518 69.1663L51.0327 72.5166C50.9994 72.5918 50.9911 72.6806 51.0097 72.7635C51.0282 72.8464 51.0721 72.9166 51.1317 72.9586C51.1912 73.0007 51.2616 73.0112 51.3273 72.9878C51.3929 72.9644 51.4486 72.909 51.4819 72.8339L52.9672 69.4836C52.9837 69.4463 52.9943 69.4054 52.9982 69.363C53.0022 69.3206 52.9995 69.2777 52.9903 69.2366C52.9811 69.1955 52.9656 69.1572 52.9447 69.1237C52.9238 69.0902 52.8978 69.0622 52.8683 69.0414C52.8388 69.0205 52.8064 69.0072 52.7728 69.0022C52.7392 68.9972 52.7052 69.0006 52.6727 69.0122C52.6401 69.0238 52.6097 69.0434 52.5832 69.0698C52.5567 69.0963 52.5345 69.129 52.518 69.1663Z" fill="#E6E6E6"/>
<path d="M64.5 74C65.3284 74 66 73.5523 66 73C66 72.4477 65.3284 72 64.5 72C63.6716 72 63 72.4477 63 73C63 73.5523 63.6716 74 64.5 74Z" fill="#E6E6E6"/>
<path d="M65 49C65.5523 49 66 48.5523 66 48C66 47.4477 65.5523 47 65 47C64.4477 47 64 47.4477 64 48C64 48.5523 64.4477 49 65 49Z" fill="#E6E6E6"/>
<path d="M57 46C57.5523 46 58 45.7761 58 45.5C58 45.2239 57.5523 45 57 45C56.4477 45 56 45.2239 56 45.5C56 45.7761 56.4477 46 57 46Z" fill="#E6E6E6"/>
<path d="M50 49C50.5523 49 51 48.5523 51 48C51 47.4477 50.5523 47 50 47C49.4477 47 49 47.4477 49 48C49 48.5523 49.4477 49 50 49Z" fill="#E6E6E6"/>
<path d="M51 74C51.5523 74 52 73.5523 52 73C52 72.4477 51.5523 72 51 72C50.4477 72 50 72.4477 50 73C50 73.5523 50.4477 74 51 74Z" fill="#E6E6E6"/>
</g>
<path d="M372 252H0V256H372V252Z" fill="#2F2E41" mask="url(#path-1-inside-1_145_456)"/>
<defs>
<clipPath id="clip0_145_456">
<path d="M0 0H372V254H0V0Z" fill="white"/>
</clipPath>
</defs>
</svg>
