<svg width="316" height="273" viewBox="0 0 316 273" fill="none" xmlns="http://www.w3.org/2000/svg">
<g clip-path="url(#clip0_145_600)">
<path d="M304.626 223.387H11.374C5.1025 223.387 0 218.183 0 211.786V175.785H316V211.786C316 218.183 310.898 223.387 304.626 223.387Z" fill="#E6E6E6"/>
<path d="M195.954 217.365H121.171V271.85H195.954V217.365Z" fill="#E6E6E6"/>
<path d="M200.452 264.968H116.673V271.85H200.452V264.968Z" fill="#E6E6E6"/>
<path d="M315.719 190.983H0V7.96156C0 3.57164 3.5016 0 7.80544 0H307.913C312.217 0 315.719 3.57164 315.719 7.96156V190.983Z" fill="#3F3D56"/>
<path d="M308.128 8.31604H7.30957V180.947H308.128V8.31604Z" fill="white"/>
<path d="M65.5666 111.208C67.869 109.268 70.7169 108.907 71.9274 110.401C73.1379 111.896 72.2526 114.681 69.9491 116.621C69.0394 117.41 67.9578 117.964 66.795 118.238L56.9378 126.335L53.3115 121.536L63.4139 114.064C63.8976 112.95 64.6358 111.971 65.5666 111.208Z" fill="#FFB6B6"/>
<path d="M8.59319 129.476C8.5882 129.118 8.59149 125.995 10.8584 124.021C13.4624 121.753 17.1368 122.671 18.4256 122.993C21.4027 123.736 21.6469 125.039 24.4427 126.377C29.6733 128.882 23.1195 127.6 26.2319 126.797C27.3093 126.519 42.8083 125.423 46.6663 123C54.1697 118.29 59.2822 115.433 59.2822 115.433L62.6243 122.251C62.6243 122.251 57.7916 129.106 50.9899 134.184C44.0129 139.392 40.5243 141.996 35.2228 143.003C34.7662 143.089 23.5379 145.045 14.4944 138.153C12.4316 136.581 8.65209 133.701 8.59319 129.476Z" fill="#0794EB"/>
<path d="M18.9601 112.136C25.3902 112.136 30.6028 106.819 30.6028 100.261C30.6028 93.7019 25.3902 88.385 18.9601 88.385C12.53 88.385 7.31738 93.7019 7.31738 100.261C7.31738 106.819 12.53 112.136 18.9601 112.136Z" fill="#FFB6B6"/>
<path d="M110.142 180.045L98.1515 167.526L91.9619 174.112L100.895 186.115L109.756 187.149L110.142 180.045Z" fill="#FFB6B6"/>
<path d="M41.6766 156.569C42.3779 156.629 44.6065 157.084 46.7367 155.889C48.1905 155.073 48.9361 153.86 49.1879 153.474C52.3121 148.688 64.3032 141.225 75.065 140.766C77.5021 140.662 79.1063 140.95 80.5643 141.725C82.6318 142.824 83.4572 144.399 86.0807 148.087C87.5158 150.105 89.1037 152.006 90.5561 154.011C99.0592 165.748 102.283 166.669 101.953 170.432C101.588 174.607 97.1734 178.568 94.2394 178.111C93.0379 177.923 92.5726 177.071 90.9673 175.346C86.2604 170.288 84.313 171.222 80.9619 167.348C77.0494 162.824 77.5616 159.074 75.5203 158.929C73.6274 158.795 72.823 161.994 68.7817 166.245C66.9325 168.19 65.6157 169.082 61.6039 171.921C45.9812 182.976 45.7319 183.752 42.5791 184.634C41.1997 185.02 31.4092 187.758 27.9215 183.401C22.4637 176.583 35.3573 156.034 41.6766 156.569Z" fill="#2F2E41"/>
<path d="M106.476 182.874C107.358 182.47 108.389 181.998 108.721 180.912C108.945 180.177 108.816 179.271 108.352 178.645C107.817 177.923 107.024 177.827 107.056 177.7C107.105 177.505 108.979 177.581 111.036 178.323C111.424 178.463 113.183 179.118 115.419 180.899C117.212 182.326 116.97 182.613 118.094 183.435C121.544 185.961 124.779 183.971 126.646 186.339C127.366 187.254 127.674 188.552 127.371 189.601C126.762 191.709 123.801 192.434 122.183 192.809C118.286 193.71 115.336 192.974 112.256 192.445C101.781 190.644 95.8956 192.284 95.1079 189.809C94.9588 189.34 95.201 189.38 96.0086 185.942C96.8058 182.549 96.7796 181.618 97.4585 181.346C98.4805 180.937 99.1667 182.797 101.741 183.434C104.022 183.998 105.905 183.136 106.476 182.874Z" fill="#2F2E41"/>
<path d="M88.8253 221L85.7959 203.773L77.0488 205.677L77.8324 220.726L84.5953 226.657L88.8253 221Z" fill="#FFB6B6"/>
<path d="M45.0972 162.36C45.6448 162.811 47.2382 164.464 49.659 164.695C51.311 164.853 52.5958 164.276 53.0165 164.101C58.2364 161.93 72.2672 162.623 81.4249 168.407C83.4987 169.717 84.6675 170.874 85.4472 172.35C86.5528 174.444 86.3689 176.22 86.509 180.775C86.5857 183.266 86.8532 185.749 86.9513 188.239C87.5255 202.822 89.6856 205.43 87.3414 208.355C84.7405 211.6 78.9073 212.349 76.7313 210.291C75.8402 209.447 75.9243 208.476 75.5458 206.129C74.4358 199.247 72.31 198.905 71.67 193.78C70.9229 187.796 73.4116 184.986 71.8023 183.697C70.3099 182.501 67.8828 184.688 62.1988 185.891C59.598 186.441 58.0172 186.425 53.1348 186.476C34.1218 186.675 33.4878 187.175 30.3936 186.099C29.0398 185.628 19.4314 182.286 18.9442 176.683C18.1817 167.915 40.1632 158.297 45.0972 162.36Z" fill="#2F2E41"/>
<path d="M84.2348 221.241C85.1868 221.412 86.3 221.612 87.1724 220.903C87.7627 220.424 88.1546 219.6 88.1153 218.816C88.0701 217.912 87.4668 217.379 87.5637 217.292C87.7112 217.159 89.2198 218.295 90.5135 220.087C90.7577 220.425 91.8519 221.974 92.7222 224.729C93.4194 226.937 93.0624 227.035 93.5393 228.36C95.0031 232.426 98.7763 232.632 99.0168 235.661C99.1096 236.83 98.6493 238.08 97.8206 238.775C96.1565 240.17 93.3073 239.075 91.7622 238.458C88.041 236.972 86.0056 234.673 83.7484 232.471C76.0721 224.981 70.2995 222.967 71.0104 220.468C71.145 219.995 71.3234 220.167 73.8843 217.785C76.4119 215.433 76.9033 214.647 77.6146 214.811C78.6854 215.058 78.229 216.991 80.0086 218.992C81.5856 220.766 83.6179 221.131 84.2348 221.241Z" fill="#2F2E41"/>
<path d="M20.5473 102.531C21.0006 100.877 20.4313 100.274 21.0116 99.5321C21.0116 99.532 21.2451 99.2333 23.3326 98.4272C22.7167 94.7822 23.1779 94.1658 23.1779 94.1658C23.7094 93.4554 24.7741 93.2837 25.4989 93.3766C27.0319 93.5732 27.3033 94.9867 28.2842 94.9549C29.6392 94.9111 31.2644 92.1444 30.76 89.7465C30.3485 87.7904 28.5742 86.3378 28.1295 86.5898C27.6885 86.8398 26.101 85.7377 25.4989 85.9585C25.0878 86.1093 23.1525 85.9087 22.7137 86.1163C22.2344 86.3431 20.8621 87.7551 20.7308 87.5772C19.819 86.3409 19.8384 85.9093 19.3094 85.6428C18.3721 85.1707 17.353 86.0434 15.5958 86.9055C11.9802 88.6794 10.9216 87.6212 9.25154 89.1152C8.40793 89.8698 7.95555 91.3121 7.08522 94.1658C5.86807 98.1567 5.2595 100.152 5.84732 102.057C6.44679 104 7.32959 103.578 8.63259 106.319C10.083 109.37 9.58312 111.144 10.9536 111.843C12.0129 112.383 13.7152 112.039 14.3579 111.054C15.4583 109.366 12.6141 107.084 13.5842 104.425C14.1797 102.793 16.0166 101.555 17.1431 101.9C18.4169 102.289 18.5107 104.619 19.3095 104.583C19.9935 104.552 20.4684 102.819 20.5473 102.531Z" fill="#2F2E41"/>
<path d="M11.7281 113.895C14.1106 111.17 23.8151 113.99 24.726 118.314C25.1007 120.092 23.7176 120.843 24.1071 122.891C24.6767 125.886 27.9023 125.682 30.2965 128.731C33.6956 133.059 30.1939 137.291 34.0102 144.514C34.8257 146.058 35.5131 147.359 36.9502 148.618C40.2481 151.507 43.3173 150.516 44.9966 153.195C46.2523 155.198 45.7364 157.667 45.6155 158.246C45.1199 160.617 43.7767 161.195 42.8303 163.138C41.2556 166.372 43.0385 168.745 43.1397 172.608C43.2664 177.442 40.7483 184.141 35.7123 186.34C30.0547 188.809 23.2311 184.719 19.9292 180.658C17.9589 178.234 17.3869 175.999 16.5249 173.24C12.6726 160.908 10.4962 162.023 7.55019 152.248C4.18236 141.073 3.52029 127.981 7.55019 123.838C8.08433 123.289 9.55431 122.02 10.4902 119.735C11.7495 116.659 10.6616 115.114 11.7281 113.895Z" fill="#0794EB"/>
<path d="M46.9321 177.324C48.7792 179.718 49.0656 182.631 47.5718 183.83C46.0779 185.029 43.3701 184.06 41.5225 181.665C40.7717 180.718 40.2539 179.602 40.0126 178.41L32.3115 168.166L36.2908 165.07L44.1848 175.061C45.2646 175.581 46.2066 176.357 46.9321 177.324Z" fill="#FFB6B6"/>
<path d="M18.728 124.279C19.0707 124.201 22.0689 123.567 24.4261 125.428C27.1339 127.566 27.0027 131.422 26.9567 132.774C26.8505 135.899 25.65 136.409 24.9359 139.473C23.5998 145.207 26.1443 150.536 27.55 153.48C28.0366 154.499 29.5998 157.617 32.7116 160.976C38.7636 167.507 44.1636 170.944 44.1636 170.944L38.3625 176.203C38.3625 176.203 29.122 173.33 22.8607 167.575C16.4381 161.671 6.56113 140.781 4.51362 135.693C4.33729 135.255 6.83499 142.379 11.604 131.942C12.6918 129.562 14.6849 125.2 18.728 124.279Z" fill="#0794EB"/>
<path d="M167.202 119.379L160.275 116.033C163.116 120.077 165.564 126.392 166.875 131.418C169.094 126.737 172.671 121.009 176.211 117.587L168.891 119.508C173.402 96.9584 190.368 80.7701 209.797 80.7701L210.072 79.9556C189.778 79.9556 171.807 95.9195 167.202 119.379Z" fill="#3F3D56"/>
<path d="M199.081 153.738H155.318C153.461 153.738 151.951 152.197 151.951 150.304C151.951 148.411 153.461 146.87 155.318 146.87H199.081C200.937 146.87 202.448 148.411 202.448 150.304C202.448 152.197 200.937 153.738 199.081 153.738Z" fill="#0794EB"/>
<path d="M257.315 153.738H213.551C211.695 153.738 210.185 152.197 210.185 150.304C210.185 148.411 211.695 146.87 213.551 146.87H257.315C259.171 146.87 260.681 148.411 260.681 150.304C260.681 152.197 259.171 153.738 257.315 153.738Z" fill="#E6E6E6"/>
<path d="M231.406 60.3251H188.866C187.794 60.3251 186.921 59.435 186.921 58.341C186.921 57.2471 187.794 56.3574 188.866 56.3574H231.406C232.479 56.3574 233.351 57.2471 233.351 58.341C233.351 59.435 232.479 60.3251 231.406 60.3251Z" fill="#3F3D56"/>
<path d="M254.234 81.4912H166.039C164.966 81.4912 164.094 80.6011 164.094 79.5072C164.094 78.4133 164.966 77.5236 166.039 77.5236H254.234C255.307 77.5236 256.179 78.4133 256.179 79.5072C256.179 80.6011 255.307 81.4912 254.234 81.4912Z" fill="#3F3D56"/>
<path d="M19.1221 272.357C19.1221 272.714 19.4027 273 19.7521 273H296.248C296.597 273 296.878 272.714 296.878 272.357C296.878 272.001 296.597 271.715 296.248 271.715H19.7521C19.4027 271.715 19.1221 272.001 19.1221 272.357Z" fill="#3F3D56"/>
<path d="M87.015 120.036C86.9401 120.036 86.8653 120.033 86.7899 120.028C82.3595 119.738 67.1999 117.55 58.1497 101.589C57.4039 100.275 57.5508 98.6039 58.5151 97.4319L75.2757 77.0629C75.961 76.2299 77.0198 75.75 78.0922 75.7632C78.8333 75.7812 80.5881 75.9722 80.9289 77.3519C82.9423 85.5038 91.4443 95.0886 101.669 96.3591C102.705 96.4876 103.537 97.4307 103.895 98.8817C104.173 100.011 103.916 101.176 103.188 102.076L89.7613 118.707C89.0792 119.551 88.0783 120.036 87.015 120.036ZM78.0278 76.5826C77.2088 76.5826 76.4121 76.9569 75.8914 77.5897L59.131 97.9587C58.383 98.8677 58.2684 100.161 58.8453 101.178C67.6959 116.787 82.5118 118.926 86.8417 119.21C87.7259 119.27 88.5749 118.886 89.1408 118.186L102.568 101.555C103.131 100.858 103.331 99.9561 103.115 99.0815C102.904 98.2253 102.388 97.2742 101.572 97.1725C91.009 95.8604 82.2279 85.9665 80.1495 77.5521C79.9811 76.8708 78.9677 76.6046 78.0755 76.583C78.0596 76.5826 78.0437 76.5826 78.0278 76.5826Z" fill="#3F3D56"/>
<path d="M68.3072 102.259L80.3908 89.6922C81.2169 88.8331 79.9228 87.511 79.0957 88.3712L67.0121 100.938C66.1861 101.797 67.4802 103.119 68.3072 102.259Z" fill="#0794EB"/>
<path d="M75.6008 105.8C78.9357 102.751 81.8337 99.2206 84.2068 95.3469C84.8332 94.3244 83.2492 93.3856 82.6253 94.404C80.331 98.149 77.5294 101.531 74.3057 104.479C73.4261 105.283 74.7249 106.6 75.6008 105.8Z" fill="#0794EB"/>
<path d="M82.1736 110.039C85.2099 106.608 87.7945 102.78 89.8294 98.6493C90.3572 97.5779 88.7778 96.6308 88.2479 97.7064C86.2819 101.697 83.8128 105.403 80.8785 108.718C80.0904 109.609 81.3817 110.934 82.1736 110.039Z" fill="#0794EB"/>
<path d="M76.9962 87.4145C83.7245 87.4145 89.1789 81.9683 89.1789 75.25C89.1789 68.5317 83.7245 63.0854 76.9962 63.0854C70.2679 63.0854 64.8135 68.5317 64.8135 75.25C64.8135 81.9683 70.2679 87.4145 76.9962 87.4145Z" fill="#E77664"/>
<path d="M83.3348 81.0203C81.4612 76.3216 79.5875 71.6228 77.7139 66.9241C77.4551 66.2752 76.6444 66.2521 76.3919 66.9241C74.5406 71.8503 73.3308 76.9907 72.7493 82.2318C72.6502 83.1245 74.0219 83.1173 74.1202 82.2318C74.3478 80.1808 74.6857 78.1452 75.1194 76.1313C76.6633 76.214 78.2199 76.0373 79.7098 75.6166C80.4775 77.5417 81.2452 79.4669 82.0129 81.392C82.3409 82.2147 83.6676 81.8549 83.3348 81.0203ZM75.4303 74.7489C75.892 72.821 76.4456 70.916 77.088 69.0415L79.1891 74.3107C77.9584 74.6402 76.6998 74.7868 75.4303 74.7489Z" fill="white"/>
</g>
<path d="M316 271H0V275H316V271Z" fill="black" mask="url(#path-1-inside-1_145_600)"/>
<defs>
<clipPath id="clip0_145_600">
<path d="M0 0H316V273H0V0Z" fill="white"/>
</clipPath>
</defs>
</svg>
