<svg width="316" height="290" viewBox="0 0 316 290" fill="none" xmlns="http://www.w3.org/2000/svg">
<g clip-path="url(#clip0_145_381)">
<path d="M22.0686 258.154C16.8878 261.72 11.5901 265.4 8.00274 270.564C4.41561 275.729 2.84969 282.779 5.73206 288.368L5.65772 288.716C7.84232 289.484 10.1879 289.676 12.4684 289.275C14.7489 288.873 16.8876 287.891 18.6783 286.424C23.2386 282.598 24.6685 276.295 25.8318 270.459L29.273 253.196L22.0686 258.154Z" fill="#34A566"/>
<path d="M27.0589 275.562C23.603 276.327 20.0619 277.126 17.0985 279.061C14.1353 280.995 11.827 284.341 12.1476 287.864L12.0352 288.03C13.0119 288.892 14.1943 289.488 15.4684 289.761C16.7426 290.034 18.0655 289.974 19.3097 289.587C22.4971 288.556 24.5764 285.571 26.4178 282.774L31.8647 274.5L27.0589 275.562Z" fill="#5AB582"/>
<path d="M315.571 15.4105H20.4903C20.3769 15.4101 20.2684 15.3648 20.1884 15.2846C20.1084 15.2043 20.0635 15.0957 20.0635 14.9824C20.0635 14.8691 20.1084 14.7605 20.1884 14.6802C20.2684 14.6 20.3769 14.5547 20.4903 14.5543H315.571C315.685 14.5547 315.793 14.6 315.873 14.6802C315.953 14.7605 315.998 14.8691 315.998 14.9824C315.998 15.0957 315.953 15.2043 315.873 15.2846C315.793 15.3648 315.685 15.4101 315.571 15.4105Z" fill="#CACACA"/>
<path d="M30.13 9.41753C32.7318 9.41753 34.841 7.30935 34.841 4.70877C34.841 2.10819 32.7318 0 30.13 0C27.5281 0 25.4189 2.10819 25.4189 4.70877C25.4189 7.30935 27.5281 9.41753 30.13 9.41753Z" fill="#34A566"/>
<path d="M46.4044 9.41753C49.0062 9.41753 51.1154 7.30935 51.1154 4.70877C51.1154 2.10819 49.0062 0 46.4044 0C43.8026 0 41.6934 2.10819 41.6934 4.70877C41.6934 7.30935 43.8026 9.41753 46.4044 9.41753Z" fill="#F69122"/>
<path d="M62.6788 9.41753C65.2806 9.41753 67.3898 7.30935 67.3898 4.70877C67.3898 2.10819 65.2806 0 62.6788 0C60.077 0 57.9678 2.10819 57.9678 4.70877C57.9678 7.30935 60.077 9.41753 62.6788 9.41753Z" fill="#02ABF4"/>
<path d="M305.821 2.88024H294.258C294.031 2.88024 293.813 2.79004 293.652 2.62948C293.492 2.46892 293.401 2.25117 293.401 2.02411C293.401 1.79704 293.492 1.57928 293.652 1.41872C293.813 1.25816 294.031 1.16797 294.258 1.16797H305.821C306.049 1.16797 306.266 1.25816 306.427 1.41872C306.588 1.57928 306.678 1.79704 306.678 2.02411C306.678 2.25117 306.588 2.46892 306.427 2.62948C306.266 2.79004 306.049 2.88024 305.821 2.88024Z" fill="#3F3D56"/>
<path d="M305.821 6.09069H294.258C294.031 6.09069 293.813 6.0005 293.652 5.83994C293.492 5.67938 293.401 5.46162 293.401 5.23455C293.401 5.00749 293.492 4.78974 293.652 4.62918C293.813 4.46862 294.031 4.37842 294.258 4.37842H305.821C306.049 4.37842 306.266 4.46862 306.427 4.62918C306.588 4.78974 306.678 5.00749 306.678 5.23455C306.678 5.46162 306.588 5.67938 306.427 5.83994C306.266 6.0005 306.049 6.09069 305.821 6.09069Z" fill="#3F3D56"/>
<path d="M305.821 9.30126H294.258C294.031 9.30126 293.813 9.21107 293.652 9.05051C293.492 8.88995 293.401 8.67219 293.401 8.44513C293.401 8.21806 293.492 8.0003 293.652 7.83974C293.813 7.67919 294.031 7.58899 294.258 7.58899H305.821C306.048 7.58977 306.265 7.68031 306.425 7.84079C306.585 8.00126 306.675 8.21858 306.675 8.44513C306.675 8.67168 306.585 8.88899 306.425 9.04947C306.265 9.20994 306.048 9.30048 305.821 9.30126Z" fill="#3F3D56"/>
<path d="M221.022 33.767H25.3008V151.058H221.022V33.767Z" fill="#F0F0F0"/>
<path d="M306.677 33.767H245.006V70.7252H306.677V33.767Z" fill="#F0F0F0"/>
<path d="M294.374 87.7037H257.68C257.221 87.7037 256.782 87.5217 256.457 87.1977C256.133 86.8738 255.951 86.4344 255.951 85.9762C255.951 85.518 256.133 85.0786 256.457 84.7547C256.782 84.4307 257.221 84.2487 257.68 84.2487H294.374C294.832 84.2487 295.272 84.4307 295.596 84.7547C295.92 85.0786 296.102 85.518 296.102 85.9762C296.102 86.4344 295.92 86.8738 295.596 87.1977C295.272 87.5217 294.832 87.7037 294.374 87.7037Z" fill="#E4E4E4"/>
<path d="M288.457 81.7903H263.596C263.137 81.7903 262.698 81.6083 262.373 81.2843C262.049 80.9603 261.867 80.5209 261.867 80.0628C261.867 79.6046 262.049 79.1652 262.373 78.8412C262.698 78.5172 263.137 78.3352 263.596 78.3352H288.457C288.916 78.3352 289.355 78.5172 289.679 78.8412C290.004 79.1652 290.186 79.6046 290.186 80.0628C290.186 80.5209 290.004 80.9603 289.679 81.2843C289.355 81.6083 288.916 81.7903 288.457 81.7903Z" fill="#E4E4E4"/>
<path d="M306.677 100.974H245.006V137.932H306.677V100.974Z" fill="#F0F0F0"/>
<path d="M294.374 154.911H257.68C257.221 154.911 256.782 154.729 256.457 154.405C256.133 154.081 255.951 153.641 255.951 153.183C255.951 152.725 256.133 152.286 256.457 151.962C256.782 151.638 257.221 151.456 257.68 151.456H294.374C294.832 151.456 295.272 151.638 295.596 151.962C295.92 152.286 296.102 152.725 296.102 153.183C296.102 153.641 295.92 154.081 295.596 154.405C295.272 154.729 294.832 154.911 294.374 154.911Z" fill="#E4E4E4"/>
<path d="M288.457 148.997H263.596C263.137 148.997 262.698 148.815 262.373 148.491C262.049 148.167 261.867 147.728 261.867 147.27C261.867 146.812 262.049 146.372 262.373 146.048C262.698 145.724 263.137 145.542 263.596 145.542H288.457C288.915 145.543 289.354 145.725 289.678 146.049C290.001 146.373 290.183 146.812 290.183 147.27C290.183 147.727 290.001 148.166 289.678 148.49C289.354 148.814 288.915 148.997 288.457 148.997Z" fill="#E4E4E4"/>
<path d="M126.563 96.8649C134.63 96.8649 141.169 90.329 141.169 82.2666C141.169 74.2042 134.63 67.6683 126.563 67.6683C118.497 67.6683 111.958 74.2042 111.958 82.2666C111.958 90.329 118.497 96.8649 126.563 96.8649Z" fill="#9E616A"/>
<path d="M151.172 151.058H114.55L116.605 104.771L116.858 104.505L120.494 100.67H132.058L136.349 104.822L136.687 105.152L145.818 113.897L151.172 151.058Z" fill="#E77664"/>
<path d="M124.687 151.058H96.8532C96.6692 133.345 96.5234 119.98 96.5234 119.98L97.9454 119.116L97.954 119.111L113.564 109.638L116.841 104.317L116.858 104.505L117.822 115.721C117.822 115.721 123.059 132.634 124.687 151.058Z" fill="#2F2E41"/>
<path d="M162.559 151.058H137.791C136.468 145.057 135.778 139.342 136.078 134.577C137.295 115.113 134.489 104.317 135.706 104.317L136.348 104.822L143.988 110.854L154.049 114.539L161.029 117.099L162.246 117.545V118.131C162.25 121.076 162.28 134.753 162.559 151.058Z" fill="#2F2E41"/>
<path d="M112.746 86.834C112.746 86.834 113.987 84.6558 113.698 77.3792C113.41 70.1026 124.496 74.2182 133.759 73.524C143.022 72.8298 141.061 85.6725 141.061 85.6725C141.061 85.6725 141.73 84.9091 143.161 78.7108C144.591 72.5126 141.343 66.3358 141.343 66.3358C140.386 59.8226 135.229 61.9101 135.229 61.9101C137.713 62.8763 137.236 64.9424 137.236 64.9424C135.134 61.2588 129.977 63.3462 129.977 63.3462C123.1 59.0327 116.13 64.7131 116.13 64.7131C107.822 66.5978 112.694 73.2017 112.694 73.2017C104.339 77.422 112.746 86.834 112.746 86.834Z" fill="#2F2E41"/>
<path d="M88.7891 151.058C89.4999 136.85 90.0438 125.703 89.8296 124.843C89.2301 122.45 97.6885 119.21 97.9455 119.115L97.9497 119.111H97.9541L99.5687 119.98L100.751 151.058H88.7891Z" fill="#2F2E41"/>
<path d="M168.383 151.058H155.813L152.216 115.541L153.698 114.458C153.698 114.458 153.826 114.488 154.049 114.539C155.201 114.826 158.918 115.798 161.03 117.099C161.497 117.363 161.91 117.713 162.246 118.131C162.452 118.377 162.555 118.693 162.533 119.013C162.426 120.019 165.167 134.239 168.383 151.058Z" fill="#2F2E41"/>
<path d="M189.545 165.398H56.7796C56.269 165.399 55.7796 165.603 55.4188 165.964C55.0581 166.325 54.8555 166.814 54.8555 167.325C54.8555 167.835 55.0581 168.325 55.4188 168.686C55.7796 169.047 56.269 169.25 56.7796 169.251H189.545C189.798 169.251 190.049 169.202 190.283 169.105C190.517 169.009 190.73 168.867 190.909 168.688C191.089 168.509 191.231 168.297 191.328 168.063C191.425 167.829 191.475 167.578 191.475 167.325C191.475 167.072 191.425 166.821 191.328 166.587C191.231 166.353 191.089 166.14 190.909 165.962C190.73 165.783 190.517 165.641 190.283 165.544C190.049 165.448 189.798 165.398 189.545 165.398Z" fill="#CACACA"/>
<path d="M153.57 165.398V169.251H56.7796C56.269 169.25 55.7796 169.047 55.4188 168.686C55.0581 168.325 54.8555 167.835 54.8555 167.325C54.8555 166.814 55.0581 166.325 55.4188 165.964C55.7796 165.603 56.269 165.399 56.7796 165.398H153.57Z" fill="#3F3D56"/>
<path d="M153.569 171.177C155.698 171.177 157.424 169.453 157.424 167.325C157.424 165.197 155.698 163.472 153.569 163.472C151.441 163.472 149.715 165.197 149.715 167.325C149.715 169.453 151.441 171.177 153.569 171.177Z" fill="#3F3D56"/>
<path d="M123.162 199.43C121.588 199.43 120.05 198.964 118.741 198.09C117.433 197.216 116.413 195.974 115.811 194.521C115.209 193.067 115.051 191.468 115.358 189.926C115.665 188.383 116.423 186.966 117.536 185.854C118.648 184.742 120.066 183.984 121.609 183.677C123.153 183.37 124.753 183.528 126.207 184.13C127.66 184.732 128.903 185.751 129.777 187.059C130.652 188.367 131.118 189.904 131.118 191.477C131.116 193.586 130.277 195.607 128.785 197.098C127.294 198.589 125.271 199.428 123.162 199.43ZM123.162 184.136C121.709 184.136 120.289 184.567 119.081 185.373C117.873 186.18 116.932 187.327 116.376 188.668C115.82 190.009 115.675 191.485 115.958 192.909C116.242 194.333 116.941 195.641 117.968 196.668C118.995 197.695 120.304 198.394 121.729 198.677C123.154 198.96 124.63 198.815 125.972 198.259C127.314 197.704 128.461 196.763 129.268 195.556C130.076 194.348 130.506 192.929 130.506 191.477C130.504 189.531 129.729 187.665 128.353 186.289C126.976 184.913 125.109 184.138 123.162 184.136Z" fill="#E77664"/>
<path d="M122.111 195.759C122.03 195.759 121.952 195.727 121.894 195.67C121.837 195.613 121.805 195.535 121.805 195.454V187.501C121.804 187.46 121.812 187.42 121.827 187.383C121.842 187.345 121.865 187.311 121.893 187.283C121.922 187.254 121.956 187.231 121.993 187.215C122.03 187.2 122.07 187.192 122.111 187.192C122.151 187.192 122.191 187.2 122.229 187.215C122.266 187.231 122.3 187.254 122.328 187.283C122.357 187.311 122.379 187.345 122.394 187.383C122.41 187.42 122.417 187.46 122.417 187.501V195.454C122.417 195.535 122.385 195.613 122.327 195.67C122.27 195.727 122.192 195.759 122.111 195.759Z" fill="#E77664"/>
<path d="M124.212 195.76C124.131 195.76 124.053 195.727 123.996 195.67C123.938 195.613 123.906 195.535 123.906 195.454V187.501C123.906 187.46 123.914 187.42 123.929 187.383C123.944 187.345 123.966 187.311 123.995 187.283C124.023 187.254 124.057 187.231 124.095 187.216C124.132 187.2 124.172 187.192 124.212 187.192C124.253 187.192 124.293 187.2 124.33 187.216C124.367 187.231 124.401 187.254 124.43 187.283C124.458 187.311 124.481 187.345 124.496 187.383C124.511 187.42 124.519 187.46 124.518 187.501V195.454C124.518 195.535 124.486 195.613 124.429 195.67C124.371 195.727 124.293 195.759 124.212 195.76Z" fill="#E77664"/>
<path d="M86.7188 191.477C86.7188 189.904 87.1854 188.367 88.0597 187.059C88.934 185.751 90.1766 184.732 91.6305 184.13C93.0844 183.528 94.6842 183.37 96.2276 183.677C97.771 183.984 99.1888 184.742 100.302 185.854C101.414 186.966 102.172 188.383 102.479 189.926C102.786 191.468 102.629 193.067 102.026 194.521C101.424 195.974 100.404 197.216 99.0958 198.09C97.7873 198.964 96.249 199.43 94.6753 199.43C92.5659 199.428 90.5435 198.589 89.0518 197.098C87.5602 195.607 86.7211 193.586 86.7188 191.477ZM87.3308 191.477C87.3308 192.929 87.7616 194.348 88.5686 195.556C89.3756 196.763 90.5227 197.704 91.8647 198.26C93.2068 198.815 94.6835 198.961 96.1082 198.677C97.5329 198.394 98.8416 197.695 99.8688 196.668C100.896 195.641 101.595 194.333 101.879 192.909C102.162 191.485 102.017 190.009 101.461 188.668C100.905 187.327 99.9636 186.18 98.7558 185.373C97.548 184.567 96.128 184.136 94.6753 184.136C92.7281 184.138 90.8613 184.913 89.4844 186.289C88.1075 187.665 87.333 189.531 87.3308 191.477Z" fill="#3F3D56"/>
<path d="M98.1115 194.155C98.1676 194.155 98.2221 194.136 98.2666 194.102C98.311 194.068 98.343 194.02 98.3576 193.966C98.3721 193.912 98.3684 193.855 98.3469 193.803C98.3255 193.751 98.2876 193.708 98.239 193.68L94.4217 191.477L98.239 189.274C98.2975 189.241 98.3402 189.185 98.3576 189.12C98.3751 189.055 98.366 188.985 98.3322 188.927C98.2985 188.868 98.2429 188.826 98.1777 188.808C98.1125 188.791 98.043 188.8 97.9845 188.834L93.7854 191.257C93.7468 191.279 93.7146 191.311 93.6923 191.35C93.67 191.389 93.6582 191.433 93.6582 191.477C93.6582 191.522 93.67 191.566 93.6923 191.604C93.7146 191.643 93.7468 191.675 93.7854 191.698L97.9845 194.121C98.0231 194.143 98.0669 194.155 98.1115 194.155Z" fill="#3F3D56"/>
<path d="M92.482 195.038C92.5495 195.038 92.6143 195.012 92.662 194.964C92.7097 194.916 92.7365 194.851 92.7365 194.784V188.17C92.7365 188.103 92.7097 188.038 92.662 187.991C92.6143 187.943 92.5495 187.916 92.482 187.916C92.4145 187.916 92.3498 187.943 92.3021 187.991C92.2544 188.038 92.2275 188.103 92.2275 188.17V194.784C92.2275 194.851 92.2544 194.916 92.3021 194.964C92.3498 195.012 92.4145 195.038 92.482 195.038Z" fill="#3F3D56"/>
<path d="M151.648 199.43C150.074 199.43 148.536 198.964 147.228 198.09C145.919 197.216 144.899 195.974 144.297 194.521C143.695 193.067 143.537 191.468 143.844 189.926C144.151 188.383 144.909 186.966 146.022 185.854C147.135 184.742 148.552 183.984 150.096 183.677C151.639 183.37 153.239 183.528 154.693 184.13C156.147 184.732 157.389 185.751 158.264 187.059C159.138 188.367 159.605 189.904 159.605 191.477C159.602 193.586 158.763 195.607 157.272 197.098C155.78 198.589 153.758 199.428 151.648 199.43ZM151.648 184.136C150.195 184.136 148.775 184.567 147.568 185.373C146.36 186.18 145.418 187.327 144.863 188.668C144.307 190.009 144.161 191.485 144.445 192.909C144.728 194.333 145.427 195.641 146.455 196.668C147.482 197.695 148.79 198.394 150.215 198.677C151.64 198.96 153.117 198.815 154.459 198.259C155.801 197.704 156.948 196.763 157.755 195.556C158.562 194.348 158.993 192.929 158.993 191.477C158.99 189.531 158.216 187.665 156.839 186.289C155.462 184.913 153.595 184.138 151.648 184.136Z" fill="#3F3D56"/>
<path d="M148.212 194.155C148.156 194.155 148.101 194.136 148.057 194.102C148.012 194.068 147.98 194.02 147.966 193.966C147.951 193.912 147.955 193.855 147.976 193.803C147.998 193.751 148.036 193.708 148.084 193.68L151.902 191.477L148.084 189.274C148.026 189.24 147.984 189.185 147.966 189.12C147.949 189.055 147.958 188.986 147.992 188.927C148.026 188.869 148.081 188.826 148.146 188.809C148.211 188.791 148.28 188.8 148.339 188.834L152.538 191.257C152.577 191.279 152.609 191.311 152.631 191.35C152.653 191.389 152.665 191.433 152.665 191.477C152.665 191.522 152.653 191.566 152.631 191.604C152.609 191.643 152.577 191.675 152.538 191.698L148.339 194.121C148.3 194.143 148.256 194.155 148.212 194.155Z" fill="#3F3D56"/>
<path d="M153.842 195.038C153.775 195.038 153.71 195.012 153.662 194.964C153.615 194.916 153.588 194.851 153.588 194.784V188.17C153.588 188.103 153.615 188.038 153.662 187.991C153.71 187.943 153.775 187.916 153.842 187.916C153.91 187.916 153.975 187.943 154.022 187.991C154.07 188.038 154.097 188.103 154.097 188.17V194.784C154.097 194.851 154.07 194.916 154.022 194.964C153.975 195.012 153.91 195.038 153.842 195.038Z" fill="#3F3D56"/>
<path d="M46.6174 197.471C46.1968 197.05 45.8738 196.542 45.671 195.982C45.4682 195.423 45.3905 194.826 45.4435 194.233C45.4966 193.641 45.679 193.067 45.9779 192.552C46.2767 192.038 46.6849 191.595 47.1735 191.255L43.2588 177.331L50.4222 179.617L53.0415 192.489C53.5583 193.347 53.7421 194.365 53.5582 195.35C53.3742 196.335 52.8353 197.218 52.0434 197.832C51.2516 198.446 50.2618 198.749 49.2618 198.682C48.2617 198.616 47.3208 198.185 46.6174 197.471Z" fill="#FFB6B6"/>
<path d="M44.7033 128.098L43.2195 126.554C43.2195 126.554 38.6318 129.704 39.6025 139.467C40.3194 146.679 38.0538 149.737 38.307 170.698L44.7033 189.895L52.1015 186.019L46.749 162.333L44.7033 128.098Z" fill="#0794EB"/>
<path d="M50.253 283.897H55.5578L58.0817 263.445L50.252 263.446L50.253 283.897Z" fill="#FFB6B6"/>
<path d="M48.8994 282.166L59.3465 282.165C61.1122 282.166 62.8059 282.867 64.0545 284.115C65.303 285.363 66.0045 287.055 66.0046 288.82V289.036L48.8998 289.037L48.8994 282.166Z" fill="#2F2E41"/>
<path d="M65.7236 282.019L70.9891 282.664L75.9848 262.672L68.2138 261.72L65.7236 282.019Z" fill="#FFB6B6"/>
<path d="M64.5914 280.136L74.9609 281.407C76.7134 281.622 78.3092 282.524 79.3964 283.915C80.4837 285.305 80.9738 287.07 80.7589 288.822L80.7326 289.037L63.7549 286.956L64.5914 280.136Z" fill="#2F2E41"/>
<path d="M47.503 179.038C47.503 179.038 37.2843 186.019 42.3934 204.913L49.3028 278.255L57.5116 278.196L60.9886 242.007L63.3516 216.53L71.247 242.876L64.7529 275.203L74.3376 276.212L85.8211 238.618L80.2832 185.092L47.503 179.038Z" fill="#2F2E41"/>
<path d="M72.1603 124.573L66.9643 120.395L53.185 119.828L43.2193 126.554C43.2193 126.554 42.1906 150.502 48.9342 171.835L45.3987 180.746L80.7488 185.179L72.1603 124.573Z" fill="#0794EB"/>
<path d="M61.0197 114.703C67.5474 114.703 72.8392 109.414 72.8392 102.889C72.8392 96.3647 67.5474 91.0754 61.0197 91.0754C54.492 91.0754 49.2002 96.3647 49.2002 102.889C49.2002 109.414 54.492 114.703 61.0197 114.703Z" fill="#FFB6B6"/>
<path d="M64.12 88.2856H61.4934C59.6631 87.7403 57.7308 87.6299 55.8503 87.963C53.9698 88.2961 52.1932 89.0637 50.6619 90.2044C49.1307 91.3452 47.8871 92.8276 47.0304 94.5336C46.1736 96.2396 45.7274 98.1221 45.7272 100.031L41.6364 113.524C41.5184 113.913 41.4932 114.324 41.5629 114.725C41.6325 115.125 41.795 115.504 42.0374 115.831C42.2798 116.157 42.5953 116.422 42.9586 116.605C43.3219 116.788 43.723 116.883 44.1298 116.883H46.1266C46.9627 115.693 47.3274 114.235 47.1501 112.791C47.5214 113.695 47.7816 114.64 47.925 115.607C47.9713 116.032 47.9625 116.461 47.8988 116.883H65.2701C65.3824 115.18 64.818 113.502 63.6994 112.212C65.0991 113.61 66.3155 115.179 67.3195 116.883H67.6458C68.3367 116.883 68.9994 116.609 69.488 116.12C69.9765 115.632 70.251 114.97 70.251 114.279V101.052H76.8929C76.8929 99.3758 76.5625 97.7156 75.9206 96.1667C75.2787 94.6177 74.3379 93.2104 73.1518 92.0249C71.9657 90.8394 70.5577 89.899 69.008 89.2574C67.4583 88.6158 65.7974 88.2856 64.12 88.2856Z" fill="#2F2E41"/>
<path d="M77.2727 196.45C76.8521 196.029 76.5291 195.52 76.3262 194.961C76.1234 194.402 76.0458 193.805 76.0988 193.212C76.1518 192.619 76.3342 192.045 76.6331 191.531C76.932 191.016 77.3402 190.573 77.8288 190.234L73.9141 176.309L81.0775 178.595L83.6967 191.468C84.2135 192.326 84.3974 193.344 84.2134 194.329C84.0295 195.313 83.4905 196.197 82.6987 196.811C81.9068 197.425 80.9171 197.727 79.9171 197.661C78.917 197.594 77.9761 197.163 77.2727 196.45Z" fill="#FFB6B6"/>
<path d="M67.6793 127.215L72.16 124.573C72.16 124.573 79.2076 123.331 79.9599 132.716C80.7122 142.101 81.7957 166.463 81.7957 166.463L83.9939 187L75.8366 188.738L66.4609 160.654L67.6793 127.215Z" fill="#0794EB"/>
<path d="M108.825 290H0.510913C0.375411 290 0.245465 289.946 0.14965 289.85C0.0538356 289.755 0 289.625 0 289.489C0 289.354 0.0538356 289.224 0.14965 289.128C0.245465 289.032 0.375411 288.979 0.510913 288.979H108.825C108.96 288.979 109.09 289.032 109.186 289.128C109.282 289.224 109.335 289.354 109.335 289.489C109.335 289.625 109.282 289.755 109.186 289.85C109.09 289.946 108.96 290 108.825 290Z" fill="#CACACA"/>
</g>
<path d="M316 288H0V292H316V288Z" fill="#2F2E41" mask="url(#path-1-inside-1_145_381)"/>
<defs>
<clipPath id="clip0_145_381">
<path d="M0 0H316V290H0V0Z" fill="white"/>
</clipPath>
</defs>
</svg>
