<svg width="82" height="81" viewBox="0 0 82 81" fill="none" xmlns="http://www.w3.org/2000/svg">
<g id="Frame 1419">
<rect width="81.7872" height="80.8683" rx="40.4342" fill="white" fill-opacity="0.42"/>
<path id="Vector" d="M36.0373 12.1739L12.2943 51.5244C11.8048 52.366 11.5457 53.3202 11.543 54.292C11.5402 55.2639 11.7939 56.2195 12.2787 57.0638C12.7634 57.9082 13.4624 58.6118 14.3061 59.1046C15.1499 59.5975 16.1089 59.8624 17.0877 59.8731H64.5738C65.5527 59.8624 66.5117 59.5975 67.3554 59.1046C68.1991 58.6118 68.8981 57.9082 69.3829 57.0638C69.8676 56.2195 70.1213 55.2639 70.1185 54.292C70.1158 53.3202 69.8568 52.366 69.3673 51.5244L45.6242 12.1739C45.1245 11.356 44.4209 10.6798 43.5812 10.2105C42.7416 9.7412 41.7943 9.49466 40.8308 9.49466C39.8672 9.49466 38.9199 9.7412 38.0803 10.2105C37.2407 10.6798 36.537 11.356 36.0373 12.1739Z" stroke="#FF6783" stroke-width="5" stroke-linecap="round" stroke-linejoin="round"/>
<path id="Vector_2" d="M40.8291 26.478V37.6097" stroke="#FF6783" stroke-width="6" stroke-linecap="round" stroke-linejoin="round"/>
<path id="Vector_3" d="M40.8291 48.7414H40.8571" stroke="#FF6783" stroke-width="6" stroke-linecap="round" stroke-linejoin="round"/>
</g>
</svg>
