<svg width="19" height="20" viewBox="0 0 19 20" fill="none" xmlns="http://www.w3.org/2000/svg">
<g clip-path="url(#clip0_145_922)">
<path d="M14.2028 14.95C12.8495 16.0358 11.2017 16.6374 9.50033 16.6667C3.95866 16.6667 0.791992 10 0.791992 10C1.77674 8.06825 3.14256 6.38051 4.79783 5.05M7.83782 3.53333C8.38275 3.39907 8.94067 3.33195 9.50033 3.33333C15.042 3.33333 18.2087 10 18.2087 10C17.7281 10.9463 17.155 11.8373 16.4987 12.6583M11.1787 11.7667C10.9612 12.0123 10.699 12.2093 10.4077 12.3459C10.1164 12.4826 9.80187 12.556 9.48298 12.562C9.16409 12.5679 8.84733 12.5061 8.5516 12.3804C8.25587 12.2547 7.98723 12.0675 7.7617 11.8301C7.53618 11.5927 7.35839 11.31 7.23894 10.9987C7.11949 10.6874 7.06083 10.3539 7.06645 10.0183C7.07208 9.68258 7.14188 9.35154 7.27169 9.04487C7.40149 8.73821 7.58865 8.46221 7.82199 8.23333" stroke="#747688" stroke-width="2" stroke-linecap="round" stroke-linejoin="round"/>
<path d="M0.791992 0.833313L18.2087 19.1666" stroke="#D8D8D8" stroke-width="2" stroke-linecap="round" stroke-linejoin="round"/>
</g>
<defs>
<clipPath id="clip0_145_922">
<rect width="19" height="20" fill="white"/>
</clipPath>
</defs>
</svg>
