<svg width="22" height="22" viewBox="0 0 22 22" fill="none" xmlns="http://www.w3.org/2000/svg">
<path d="M10.9996 2.29163C12.0777 2.2913 13.1275 2.63656 13.9949 3.27674C14.8623 3.91692 15.5017 4.8183 15.8192 5.84859C16.1367 6.87887 16.1156 7.98379 15.7589 9.00118C15.4023 10.0186 14.7289 10.8948 13.8376 11.5014C15.3846 12.0688 16.7264 13.0862 17.6902 14.4227C18.6541 15.7592 19.1959 17.3536 19.2459 19.0006C19.2506 19.092 19.2369 19.1835 19.2058 19.2696C19.1747 19.3556 19.1267 19.4346 19.0646 19.5019C19.0025 19.5692 18.9276 19.6234 18.8443 19.6614C18.761 19.6993 18.671 19.7202 18.5795 19.7229C18.488 19.7256 18.3969 19.71 18.3115 19.677C18.2261 19.644 18.1481 19.5943 18.0822 19.5308C18.0163 19.4672 17.9638 19.3912 17.9276 19.3071C17.8915 19.223 17.8725 19.1325 17.8718 19.041C17.8172 17.2548 17.0693 15.5601 15.7866 14.3159C14.5038 13.0718 12.787 12.376 11 12.376C9.21303 12.376 7.49625 13.0718 6.2135 14.3159C4.93074 15.5601 4.18283 17.2548 4.12824 19.041C4.12277 19.2233 4.04509 19.396 3.91229 19.5211C3.77949 19.6461 3.60245 19.7133 3.42011 19.7078C3.23778 19.7024 3.06508 19.6247 2.94002 19.4919C2.81496 19.3591 2.74777 19.182 2.75324 18.9997C2.80343 17.3528 3.34531 15.7587 4.30915 14.4223C5.273 13.086 6.61469 12.0687 8.16157 11.5014C7.27029 10.8948 6.5969 10.0186 6.24024 9.00118C5.88359 7.98379 5.86245 6.87887 6.17993 5.84859C6.49742 4.8183 7.1368 3.91692 8.00424 3.27674C8.87168 2.63656 9.92148 2.2913 10.9996 2.29163ZM7.33291 7.33329C7.33291 8.30575 7.71921 9.23838 8.40685 9.92602C9.09448 10.6137 10.0271 11 10.9996 11C11.972 11 12.9047 10.6137 13.5923 9.92602C14.2799 9.23838 14.6662 8.30575 14.6662 7.33329C14.6662 6.36083 14.2799 5.4282 13.5923 4.74057C12.9047 4.05293 11.972 3.66663 10.9996 3.66663C10.0271 3.66663 9.09448 4.05293 8.40685 4.74057C7.71921 5.4282 7.33291 6.36083 7.33291 7.33329Z" fill="#747688"/>
</svg>
