<svg width="22" height="22" viewBox="0 0 22 22" fill="none" xmlns="http://www.w3.org/2000/svg">
<path d="M1.83368 15.51V18.26C1.83264 18.5153 1.88494 18.768 1.98721 19.0019C2.08949 19.2358 2.23949 19.4458 2.42761 19.6184C2.61573 19.791 2.83782 19.9224 3.07966 20.0042C3.3215 20.0859 3.57775 20.1163 3.83201 20.0933C6.65275 19.7868 9.36226 18.823 11.7428 17.2792C13.9577 15.8718 15.8355 13.994 17.2428 11.7792C18.792 9.38778 19.7561 6.66509 20.057 3.83167C20.0799 3.57819 20.0498 3.3227 19.9686 3.0815C19.8873 2.84029 19.7567 2.61864 19.5851 2.43066C19.4135 2.24268 19.2047 2.09249 18.9719 1.98965C18.7391 1.88681 18.4874 1.83358 18.2328 1.83334H15.4828C15.038 1.82896 14.6067 1.9865 14.2694 2.27658C13.9321 2.56666 13.7118 2.9695 13.6495 3.41001C13.5334 4.29007 13.3182 5.15417 13.0078 5.98584C12.8845 6.31394 12.8578 6.67051 12.9309 7.01331C13.004 7.35612 13.1739 7.67078 13.4203 7.92001V7.92001C14.108 8.60765 14.2645 9.68057 13.6922 10.4668C12.7919 11.7033 11.7037 12.7916 10.4671 13.6918C9.6809 14.2642 8.60799 14.1077 7.92035 13.42V13.42C7.67111 13.1736 7.35645 13.0037 7.01365 12.9306C6.67085 12.8575 6.31428 12.8842 5.98618 13.0075C5.15451 13.3178 4.29041 13.5331 3.41035 13.6492C2.96506 13.712 2.55839 13.9363 2.26769 14.2794C1.97699 14.6225 1.82252 15.0605 1.83368 15.51Z" stroke="#747688" stroke-width="1.5" stroke-linecap="round" stroke-linejoin="round"/>
</svg>
